<mxfile host="Electron" agent="Mozilla/5.0 (Macintosh; Intel Mac OS X 10_15_7) AppleWebKit/537.36 (KHTML, like Gecko) draw.io/24.7.17 Chrome/128.0.6613.36 Electron/32.0.1 Safari/537.36" version="24.7.17">
  <diagram name="Page-1" id="tBIAlemMxgHySIvlNtww">
    <mxGraphModel dx="1080" dy="782" grid="1" gridSize="10" guides="1" tooltips="1" connect="1" arrows="1" fold="1" page="1" pageScale="1" pageWidth="1920" pageHeight="1200" math="0" shadow="0">
      <root>
        <mxCell id="0" />
        <mxCell id="1" parent="0" />
        <mxCell id="Jd2PYMOuBTmMrBa2TlfO-436" value="" style="rounded=0;whiteSpace=wrap;html=1;fillColor=none;" parent="1" vertex="1">
          <mxGeometry x="800" y="720" width="500" height="200" as="geometry" />
        </mxCell>
        <mxCell id="Jd2PYMOuBTmMrBa2TlfO-394" value="" style="group" parent="1" vertex="1" connectable="0">
          <mxGeometry x="1085" y="795" width="30" height="30" as="geometry" />
        </mxCell>
        <mxCell id="Jd2PYMOuBTmMrBa2TlfO-395" value="4" style="text;html=1;align=center;verticalAlign=middle;resizable=0;points=[];autosize=1;strokeColor=none;fillColor=none;" parent="Jd2PYMOuBTmMrBa2TlfO-394" vertex="1">
          <mxGeometry width="30" height="30" as="geometry" />
        </mxCell>
        <mxCell id="Jd2PYMOuBTmMrBa2TlfO-396" value="" style="endArrow=none;html=1;rounded=0;" parent="Jd2PYMOuBTmMrBa2TlfO-394" edge="1">
          <mxGeometry width="50" height="50" relative="1" as="geometry">
            <mxPoint x="12" y="30" as="sourcePoint" />
            <mxPoint x="18" y="20" as="targetPoint" />
          </mxGeometry>
        </mxCell>
        <mxCell id="Jd2PYMOuBTmMrBa2TlfO-337" value="" style="group" parent="1" vertex="1" connectable="0">
          <mxGeometry x="900" y="755" width="30" height="30" as="geometry" />
        </mxCell>
        <mxCell id="Jd2PYMOuBTmMrBa2TlfO-338" value="4" style="text;html=1;align=center;verticalAlign=middle;resizable=0;points=[];autosize=1;strokeColor=none;fillColor=none;" parent="Jd2PYMOuBTmMrBa2TlfO-337" vertex="1">
          <mxGeometry width="30" height="30" as="geometry" />
        </mxCell>
        <mxCell id="Jd2PYMOuBTmMrBa2TlfO-339" value="" style="endArrow=none;html=1;rounded=0;" parent="Jd2PYMOuBTmMrBa2TlfO-337" edge="1">
          <mxGeometry width="50" height="50" relative="1" as="geometry">
            <mxPoint x="12" y="30" as="sourcePoint" />
            <mxPoint x="18" y="20" as="targetPoint" />
          </mxGeometry>
        </mxCell>
        <mxCell id="Jd2PYMOuBTmMrBa2TlfO-326" value="" style="group" parent="1" vertex="1" connectable="0">
          <mxGeometry x="835" y="765" width="30" height="30" as="geometry" />
        </mxCell>
        <mxCell id="Jd2PYMOuBTmMrBa2TlfO-327" value="4" style="text;html=1;align=center;verticalAlign=middle;resizable=0;points=[];autosize=1;strokeColor=none;fillColor=none;" parent="Jd2PYMOuBTmMrBa2TlfO-326" vertex="1">
          <mxGeometry width="30" height="30" as="geometry" />
        </mxCell>
        <mxCell id="Jd2PYMOuBTmMrBa2TlfO-328" value="" style="endArrow=none;html=1;rounded=0;" parent="Jd2PYMOuBTmMrBa2TlfO-326" edge="1">
          <mxGeometry width="50" height="50" relative="1" as="geometry">
            <mxPoint x="12" y="30" as="sourcePoint" />
            <mxPoint x="18" y="20" as="targetPoint" />
          </mxGeometry>
        </mxCell>
        <mxCell id="Jd2PYMOuBTmMrBa2TlfO-329" value="" style="group" parent="1" vertex="1" connectable="0">
          <mxGeometry x="835" y="745" width="30" height="30" as="geometry" />
        </mxCell>
        <mxCell id="Jd2PYMOuBTmMrBa2TlfO-330" value="4" style="text;html=1;align=center;verticalAlign=middle;resizable=0;points=[];autosize=1;strokeColor=none;fillColor=none;" parent="Jd2PYMOuBTmMrBa2TlfO-329" vertex="1">
          <mxGeometry width="30" height="30" as="geometry" />
        </mxCell>
        <mxCell id="Jd2PYMOuBTmMrBa2TlfO-331" value="" style="endArrow=none;html=1;rounded=0;" parent="Jd2PYMOuBTmMrBa2TlfO-329" edge="1">
          <mxGeometry width="50" height="50" relative="1" as="geometry">
            <mxPoint x="12" y="30" as="sourcePoint" />
            <mxPoint x="18" y="20" as="targetPoint" />
          </mxGeometry>
        </mxCell>
        <mxCell id="Jd2PYMOuBTmMrBa2TlfO-315" value="" style="rounded=0;whiteSpace=wrap;html=1;fillColor=none;" parent="1" vertex="1">
          <mxGeometry x="120" y="720" width="470" height="190" as="geometry" />
        </mxCell>
        <mxCell id="Jd2PYMOuBTmMrBa2TlfO-217" value="" style="rounded=0;whiteSpace=wrap;html=1;fillColor=none;" parent="1" vertex="1">
          <mxGeometry x="99" y="240" width="741" height="390" as="geometry" />
        </mxCell>
        <mxCell id="Jd2PYMOuBTmMrBa2TlfO-216" value="" style="rounded=0;whiteSpace=wrap;html=1;fillColor=none;" parent="1" vertex="1">
          <mxGeometry x="178" y="40" width="322" height="160" as="geometry" />
        </mxCell>
        <mxCell id="Jd2PYMOuBTmMrBa2TlfO-126" value="mem[1]" style="text;html=1;align=center;verticalAlign=middle;resizable=0;points=[];autosize=1;strokeColor=none;fillColor=none;fontColor=#999999;" parent="1" vertex="1">
          <mxGeometry x="392" y="326" width="60" height="30" as="geometry" />
        </mxCell>
        <mxCell id="Jd2PYMOuBTmMrBa2TlfO-127" value="mem[0]" style="text;html=1;align=center;verticalAlign=middle;resizable=0;points=[];autosize=1;strokeColor=none;fillColor=none;fontColor=#999999;" parent="1" vertex="1">
          <mxGeometry x="393" y="276" width="60" height="30" as="geometry" />
        </mxCell>
        <mxCell id="Jd2PYMOuBTmMrBa2TlfO-128" value="mem[14]" style="text;html=1;align=center;verticalAlign=middle;resizable=0;points=[];autosize=1;strokeColor=none;fillColor=none;fontColor=#999999;" parent="1" vertex="1">
          <mxGeometry x="390" y="427" width="70" height="30" as="geometry" />
        </mxCell>
        <mxCell id="Jd2PYMOuBTmMrBa2TlfO-129" value="mem[15]" style="text;html=1;align=center;verticalAlign=middle;resizable=0;points=[];autosize=1;strokeColor=none;fillColor=none;fontColor=#999999;" parent="1" vertex="1">
          <mxGeometry x="390" y="477" width="70" height="30" as="geometry" />
        </mxCell>
        <mxCell id="Jd2PYMOuBTmMrBa2TlfO-32" value="clk" style="text;html=1;align=center;verticalAlign=middle;resizable=0;points=[];autosize=1;strokeColor=none;fillColor=none;" parent="1" vertex="1">
          <mxGeometry x="240" y="294" width="40" height="30" as="geometry" />
        </mxCell>
        <mxCell id="Jd2PYMOuBTmMrBa2TlfO-38" value="clk" style="text;html=1;align=center;verticalAlign=middle;resizable=0;points=[];autosize=1;strokeColor=none;fillColor=none;" parent="1" vertex="1">
          <mxGeometry x="240" y="344" width="40" height="30" as="geometry" />
        </mxCell>
        <mxCell id="Jd2PYMOuBTmMrBa2TlfO-44" value="clk" style="text;html=1;align=center;verticalAlign=middle;resizable=0;points=[];autosize=1;strokeColor=none;fillColor=none;" parent="1" vertex="1">
          <mxGeometry x="240" y="444" width="40" height="30" as="geometry" />
        </mxCell>
        <mxCell id="Jd2PYMOuBTmMrBa2TlfO-47" value="clk" style="text;html=1;align=center;verticalAlign=middle;resizable=0;points=[];autosize=1;strokeColor=none;fillColor=none;" parent="1" vertex="1">
          <mxGeometry x="240" y="494" width="40" height="30" as="geometry" />
        </mxCell>
        <mxCell id="Jd2PYMOuBTmMrBa2TlfO-2" value="&lt;p style=&quot;line-height: 0%;&quot;&gt;&lt;span style=&quot;font-size: 16px;&quot;&gt;&lt;b&gt;MEM&lt;/b&gt;&lt;/span&gt;&lt;/p&gt;&lt;p style=&quot;line-height: 0%;&quot;&gt;&lt;span style=&quot;&quot;&gt;[7:0]&lt;/span&gt;&lt;/p&gt;&lt;p&gt;&lt;/p&gt;" style="rounded=1;whiteSpace=wrap;html=1;" parent="1" vertex="1">
          <mxGeometry x="280" y="280" width="120" height="40" as="geometry" />
        </mxCell>
        <mxCell id="Jd2PYMOuBTmMrBa2TlfO-3" value="&lt;p style=&quot;line-height: 0%;&quot;&gt;&lt;span style=&quot;font-size: 16px;&quot;&gt;&lt;b&gt;MEM&lt;/b&gt;&lt;/span&gt;&lt;/p&gt;&lt;p style=&quot;line-height: 0%;&quot;&gt;&lt;span style=&quot;&quot;&gt;[7:0]&lt;/span&gt;&lt;/p&gt;&lt;p&gt;&lt;/p&gt;" style="rounded=1;whiteSpace=wrap;html=1;" parent="1" vertex="1">
          <mxGeometry x="280" y="330" width="120" height="40" as="geometry" />
        </mxCell>
        <mxCell id="Jd2PYMOuBTmMrBa2TlfO-4" value="&lt;p style=&quot;line-height: 0%;&quot;&gt;&lt;span style=&quot;font-size: 16px;&quot;&gt;&lt;b&gt;MEM&lt;/b&gt;&lt;/span&gt;&lt;/p&gt;&lt;p style=&quot;line-height: 0%;&quot;&gt;&lt;span style=&quot;&quot;&gt;[7:0]&lt;/span&gt;&lt;/p&gt;&lt;p&gt;&lt;/p&gt;" style="rounded=1;whiteSpace=wrap;html=1;" parent="1" vertex="1">
          <mxGeometry x="280" y="430" width="120" height="40" as="geometry" />
        </mxCell>
        <mxCell id="Jd2PYMOuBTmMrBa2TlfO-5" value="" style="shape=ellipse;fillColor=#000000;strokeColor=none;html=1;sketch=0;fontFamily=Helvetica;fontSize=11;fontColor=default;labelBackgroundColor=default;" parent="1" vertex="1">
          <mxGeometry x="336" y="397" width="8" height="8" as="geometry" />
        </mxCell>
        <mxCell id="Jd2PYMOuBTmMrBa2TlfO-6" value="" style="shape=ellipse;fillColor=#000000;strokeColor=none;html=1;sketch=0;fontFamily=Helvetica;fontSize=11;fontColor=default;labelBackgroundColor=default;" parent="1" vertex="1">
          <mxGeometry x="336" y="411" width="8" height="8" as="geometry" />
        </mxCell>
        <mxCell id="Jd2PYMOuBTmMrBa2TlfO-7" value="" style="shape=ellipse;fillColor=#000000;strokeColor=none;html=1;sketch=0;fontFamily=Helvetica;fontSize=11;fontColor=default;labelBackgroundColor=default;" parent="1" vertex="1">
          <mxGeometry x="336" y="383" width="8" height="8" as="geometry" />
        </mxCell>
        <mxCell id="Jd2PYMOuBTmMrBa2TlfO-8" value="&lt;p style=&quot;line-height: 0%;&quot;&gt;&lt;span style=&quot;font-size: 16px;&quot;&gt;&lt;b&gt;MEM&lt;/b&gt;&lt;/span&gt;&lt;/p&gt;&lt;p style=&quot;line-height: 0%;&quot;&gt;&lt;span style=&quot;&quot;&gt;[7:0]&lt;/span&gt;&lt;/p&gt;&lt;p&gt;&lt;/p&gt;" style="rounded=1;whiteSpace=wrap;html=1;" parent="1" vertex="1">
          <mxGeometry x="280" y="480" width="120" height="40" as="geometry" />
        </mxCell>
        <mxCell id="Jd2PYMOuBTmMrBa2TlfO-9" value="&lt;p style=&quot;line-height: 0%;&quot;&gt;&lt;span style=&quot;font-size: 16px;&quot;&gt;&lt;b&gt;Compare&lt;/b&gt;&lt;/span&gt;&lt;/p&gt;&lt;p style=&quot;line-height: 0%;&quot;&gt;&lt;span style=&quot;font-size: 16px;&quot;&gt;&lt;b&gt;Array&lt;/b&gt;&lt;/span&gt;&lt;/p&gt;&lt;p style=&quot;line-height: 0%;&quot;&gt;&lt;span style=&quot;font-size: 8px; text-wrap: nowrap; background-color: initial;&quot;&gt;16x1&lt;/span&gt;&lt;br&gt;&lt;/p&gt;&lt;p&gt;&lt;/p&gt;" style="rounded=1;whiteSpace=wrap;html=1;" parent="1" vertex="1">
          <mxGeometry x="460" y="280" width="80" height="240" as="geometry" />
        </mxCell>
        <mxCell id="Jd2PYMOuBTmMrBa2TlfO-135" style="edgeStyle=orthogonalEdgeStyle;rounded=0;orthogonalLoop=1;jettySize=auto;html=1;exitX=1;exitY=0.5;exitDx=0;exitDy=0;entryX=0.75;entryY=1;entryDx=0;entryDy=0;" parent="1" source="Jd2PYMOuBTmMrBa2TlfO-10" target="Jd2PYMOuBTmMrBa2TlfO-184" edge="1">
          <mxGeometry relative="1" as="geometry">
            <mxPoint x="710" y="400" as="targetPoint" />
          </mxGeometry>
        </mxCell>
        <mxCell id="Jd2PYMOuBTmMrBa2TlfO-10" value="&lt;p style=&quot;line-height: 0%;&quot;&gt;&lt;span style=&quot;font-size: 16px;&quot;&gt;&lt;b&gt;Priority&lt;/b&gt;&lt;/span&gt;&lt;/p&gt;&lt;p style=&quot;line-height: 0%;&quot;&gt;&lt;span style=&quot;font-size: 16px;&quot;&gt;&lt;b&gt;Encoder&lt;/b&gt;&lt;/span&gt;&lt;/p&gt;&lt;p&gt;&lt;/p&gt;" style="rounded=1;whiteSpace=wrap;html=1;" parent="1" vertex="1">
          <mxGeometry x="600" y="280" width="80" height="240" as="geometry" />
        </mxCell>
        <mxCell id="Jd2PYMOuBTmMrBa2TlfO-11" value="" style="shape=trapezoid;perimeter=trapezoidPerimeter;whiteSpace=wrap;html=1;fixedSize=1;rotation=-90;" parent="1" vertex="1">
          <mxGeometry x="80" y="370" width="260" height="60" as="geometry" />
        </mxCell>
        <mxCell id="Jd2PYMOuBTmMrBa2TlfO-12" value="" style="endArrow=classic;html=1;rounded=0;exitX=0.885;exitY=1;exitDx=0;exitDy=0;exitPerimeter=0;" parent="1" edge="1">
          <mxGeometry width="50" height="50" relative="1" as="geometry">
            <mxPoint x="240" y="289.9" as="sourcePoint" />
            <mxPoint x="280" y="290" as="targetPoint" />
          </mxGeometry>
        </mxCell>
        <mxCell id="Jd2PYMOuBTmMrBa2TlfO-13" value="" style="endArrow=classic;html=1;rounded=0;exitX=0.885;exitY=1;exitDx=0;exitDy=0;exitPerimeter=0;" parent="1" edge="1">
          <mxGeometry width="50" height="50" relative="1" as="geometry">
            <mxPoint x="240" y="339.84000000000003" as="sourcePoint" />
            <mxPoint x="280" y="339.84000000000003" as="targetPoint" />
          </mxGeometry>
        </mxCell>
        <mxCell id="Jd2PYMOuBTmMrBa2TlfO-14" value="" style="endArrow=classic;html=1;rounded=0;exitX=0.885;exitY=1;exitDx=0;exitDy=0;exitPerimeter=0;" parent="1" edge="1">
          <mxGeometry width="50" height="50" relative="1" as="geometry">
            <mxPoint x="240" y="439.84000000000003" as="sourcePoint" />
            <mxPoint x="280" y="439.84000000000003" as="targetPoint" />
          </mxGeometry>
        </mxCell>
        <mxCell id="Jd2PYMOuBTmMrBa2TlfO-15" value="" style="endArrow=classic;html=1;rounded=0;exitX=0.885;exitY=1;exitDx=0;exitDy=0;exitPerimeter=0;" parent="1" edge="1">
          <mxGeometry width="50" height="50" relative="1" as="geometry">
            <mxPoint x="240" y="489.84000000000003" as="sourcePoint" />
            <mxPoint x="280" y="489.84000000000003" as="targetPoint" />
          </mxGeometry>
        </mxCell>
        <mxCell id="Jd2PYMOuBTmMrBa2TlfO-16" value="&lt;b&gt;DMUX&lt;/b&gt;&lt;div style=&quot;font-size: 8px;&quot;&gt;&lt;font style=&quot;font-size: 8px;&quot;&gt;4bit-sel&lt;/font&gt;&lt;/div&gt;" style="text;html=1;align=center;verticalAlign=middle;resizable=0;points=[];autosize=1;strokeColor=none;fillColor=none;" parent="1" vertex="1">
          <mxGeometry x="180" y="380" width="60" height="40" as="geometry" />
        </mxCell>
        <mxCell id="Jd2PYMOuBTmMrBa2TlfO-17" value="" style="endArrow=classic;html=1;rounded=0;edgeStyle=orthogonalEdgeStyle;" parent="1" target="Jd2PYMOuBTmMrBa2TlfO-11" edge="1">
          <mxGeometry width="50" height="50" relative="1" as="geometry">
            <mxPoint x="160" y="560" as="sourcePoint" />
            <mxPoint x="210" y="550" as="targetPoint" />
            <Array as="points">
              <mxPoint x="210" y="560" />
            </Array>
          </mxGeometry>
        </mxCell>
        <mxCell id="Jd2PYMOuBTmMrBa2TlfO-18" value="addr[3:0]" style="text;html=1;align=center;verticalAlign=middle;resizable=0;points=[];autosize=1;strokeColor=none;fillColor=none;" parent="1" vertex="1">
          <mxGeometry x="97" y="545" width="70" height="30" as="geometry" />
        </mxCell>
        <mxCell id="Jd2PYMOuBTmMrBa2TlfO-19" value="" style="endArrow=classic;html=1;rounded=0;" parent="1" edge="1">
          <mxGeometry width="50" height="50" relative="1" as="geometry">
            <mxPoint x="160" y="400" as="sourcePoint" />
            <mxPoint x="180" y="400" as="targetPoint" />
          </mxGeometry>
        </mxCell>
        <mxCell id="Jd2PYMOuBTmMrBa2TlfO-21" value="" style="endArrow=classic;html=1;rounded=0;edgeStyle=orthogonalEdgeStyle;" parent="1" edge="1">
          <mxGeometry width="50" height="50" relative="1" as="geometry">
            <mxPoint x="160" y="540" as="sourcePoint" />
            <mxPoint x="500" y="520" as="targetPoint" />
            <Array as="points">
              <mxPoint x="500" y="540" />
              <mxPoint x="500" y="530" />
            </Array>
          </mxGeometry>
        </mxCell>
        <mxCell id="Jd2PYMOuBTmMrBa2TlfO-30" value="" style="endArrow=none;html=1;rounded=0;" parent="1" edge="1">
          <mxGeometry width="50" height="50" relative="1" as="geometry">
            <mxPoint x="270" y="310" as="sourcePoint" />
            <mxPoint x="280" y="310" as="targetPoint" />
          </mxGeometry>
        </mxCell>
        <mxCell id="Jd2PYMOuBTmMrBa2TlfO-31" value="" style="triangle;whiteSpace=wrap;html=1;" parent="1" vertex="1">
          <mxGeometry x="280" y="306" width="8" height="8" as="geometry" />
        </mxCell>
        <mxCell id="Jd2PYMOuBTmMrBa2TlfO-36" value="" style="endArrow=none;html=1;rounded=0;" parent="1" edge="1">
          <mxGeometry width="50" height="50" relative="1" as="geometry">
            <mxPoint x="270" y="360" as="sourcePoint" />
            <mxPoint x="280" y="360" as="targetPoint" />
          </mxGeometry>
        </mxCell>
        <mxCell id="Jd2PYMOuBTmMrBa2TlfO-37" value="" style="triangle;whiteSpace=wrap;html=1;" parent="1" vertex="1">
          <mxGeometry x="280" y="356" width="8" height="8" as="geometry" />
        </mxCell>
        <mxCell id="Jd2PYMOuBTmMrBa2TlfO-42" value="" style="endArrow=none;html=1;rounded=0;" parent="1" edge="1">
          <mxGeometry width="50" height="50" relative="1" as="geometry">
            <mxPoint x="270" y="460" as="sourcePoint" />
            <mxPoint x="280" y="460" as="targetPoint" />
          </mxGeometry>
        </mxCell>
        <mxCell id="Jd2PYMOuBTmMrBa2TlfO-43" value="" style="triangle;whiteSpace=wrap;html=1;" parent="1" vertex="1">
          <mxGeometry x="280" y="456" width="8" height="8" as="geometry" />
        </mxCell>
        <mxCell id="Jd2PYMOuBTmMrBa2TlfO-45" value="" style="endArrow=none;html=1;rounded=0;" parent="1" edge="1">
          <mxGeometry width="50" height="50" relative="1" as="geometry">
            <mxPoint x="270" y="510" as="sourcePoint" />
            <mxPoint x="280" y="510" as="targetPoint" />
          </mxGeometry>
        </mxCell>
        <mxCell id="Jd2PYMOuBTmMrBa2TlfO-46" value="" style="triangle;whiteSpace=wrap;html=1;" parent="1" vertex="1">
          <mxGeometry x="280" y="506" width="8" height="8" as="geometry" />
        </mxCell>
        <mxCell id="Jd2PYMOuBTmMrBa2TlfO-48" value="" style="endArrow=classic;html=1;rounded=0;edgeStyle=orthogonalEdgeStyle;" parent="1" edge="1">
          <mxGeometry width="50" height="50" relative="1" as="geometry">
            <mxPoint x="250" y="540" as="sourcePoint" />
            <mxPoint x="280" y="300" as="targetPoint" />
            <Array as="points">
              <mxPoint x="250" y="380" />
              <mxPoint x="250" y="380" />
            </Array>
          </mxGeometry>
        </mxCell>
        <mxCell id="Jd2PYMOuBTmMrBa2TlfO-54" value="in[7:0]" style="text;html=1;align=center;verticalAlign=middle;resizable=0;points=[];autosize=1;strokeColor=none;fillColor=none;" parent="1" vertex="1">
          <mxGeometry x="110" y="523" width="60" height="30" as="geometry" />
        </mxCell>
        <mxCell id="Jd2PYMOuBTmMrBa2TlfO-55" value="" style="group" parent="1" vertex="1" connectable="0">
          <mxGeometry x="165" y="514" width="30" height="31" as="geometry" />
        </mxCell>
        <mxCell id="Jd2PYMOuBTmMrBa2TlfO-56" value="" style="endArrow=none;html=1;rounded=0;" parent="Jd2PYMOuBTmMrBa2TlfO-55" edge="1">
          <mxGeometry width="50" height="50" relative="1" as="geometry">
            <mxPoint x="12" y="31" as="sourcePoint" />
            <mxPoint x="18" y="21" as="targetPoint" />
          </mxGeometry>
        </mxCell>
        <mxCell id="Jd2PYMOuBTmMrBa2TlfO-57" value="8" style="text;html=1;align=center;verticalAlign=middle;resizable=0;points=[];autosize=1;strokeColor=none;fillColor=none;" parent="Jd2PYMOuBTmMrBa2TlfO-55" vertex="1">
          <mxGeometry width="30" height="30" as="geometry" />
        </mxCell>
        <mxCell id="Jd2PYMOuBTmMrBa2TlfO-58" value="" style="endArrow=classic;html=1;rounded=0;exitX=0.885;exitY=1;exitDx=0;exitDy=0;exitPerimeter=0;" parent="1" edge="1">
          <mxGeometry width="50" height="50" relative="1" as="geometry">
            <mxPoint x="250" y="349.84000000000003" as="sourcePoint" />
            <mxPoint x="280" y="350" as="targetPoint" />
          </mxGeometry>
        </mxCell>
        <mxCell id="Jd2PYMOuBTmMrBa2TlfO-59" value="" style="endArrow=classic;html=1;rounded=0;exitX=0.885;exitY=1;exitDx=0;exitDy=0;exitPerimeter=0;" parent="1" edge="1">
          <mxGeometry width="50" height="50" relative="1" as="geometry">
            <mxPoint x="250" y="449.9200000000001" as="sourcePoint" />
            <mxPoint x="280" y="450" as="targetPoint" />
          </mxGeometry>
        </mxCell>
        <mxCell id="Jd2PYMOuBTmMrBa2TlfO-60" value="" style="endArrow=classic;html=1;rounded=0;exitX=0.885;exitY=1;exitDx=0;exitDy=0;exitPerimeter=0;" parent="1" edge="1">
          <mxGeometry width="50" height="50" relative="1" as="geometry">
            <mxPoint x="250" y="500" as="sourcePoint" />
            <mxPoint x="280" y="500" as="targetPoint" />
          </mxGeometry>
        </mxCell>
        <mxCell id="Jd2PYMOuBTmMrBa2TlfO-61" value="" style="shape=ellipse;fillColor=#000000;strokeColor=none;html=1;sketch=0;fontFamily=Helvetica;fontSize=11;fontColor=default;labelBackgroundColor=default;" parent="1" vertex="1">
          <mxGeometry x="247" y="497" width="6" height="6" as="geometry" />
        </mxCell>
        <mxCell id="Jd2PYMOuBTmMrBa2TlfO-62" value="" style="shape=ellipse;fillColor=#000000;strokeColor=none;html=1;sketch=0;fontFamily=Helvetica;fontSize=11;fontColor=default;labelBackgroundColor=default;" parent="1" vertex="1">
          <mxGeometry x="247" y="447" width="6" height="6" as="geometry" />
        </mxCell>
        <mxCell id="Jd2PYMOuBTmMrBa2TlfO-63" value="" style="shape=ellipse;fillColor=#000000;strokeColor=none;html=1;sketch=0;fontFamily=Helvetica;fontSize=11;fontColor=default;labelBackgroundColor=default;" parent="1" vertex="1">
          <mxGeometry x="247" y="347" width="6" height="6" as="geometry" />
        </mxCell>
        <mxCell id="Jd2PYMOuBTmMrBa2TlfO-64" value="D" style="text;html=1;align=center;verticalAlign=middle;resizable=0;points=[];autosize=1;strokeColor=none;fillColor=none;" parent="1" vertex="1">
          <mxGeometry x="271" y="485" width="30" height="30" as="geometry" />
        </mxCell>
        <mxCell id="Jd2PYMOuBTmMrBa2TlfO-65" value="En" style="text;html=1;align=center;verticalAlign=middle;resizable=0;points=[];autosize=1;strokeColor=none;fillColor=none;" parent="1" vertex="1">
          <mxGeometry x="269" y="474" width="40" height="30" as="geometry" />
        </mxCell>
        <mxCell id="Jd2PYMOuBTmMrBa2TlfO-66" value="D" style="text;html=1;align=center;verticalAlign=middle;resizable=0;points=[];autosize=1;strokeColor=none;fillColor=none;" parent="1" vertex="1">
          <mxGeometry x="271" y="435" width="30" height="30" as="geometry" />
        </mxCell>
        <mxCell id="Jd2PYMOuBTmMrBa2TlfO-67" value="En" style="text;html=1;align=center;verticalAlign=middle;resizable=0;points=[];autosize=1;strokeColor=none;fillColor=none;" parent="1" vertex="1">
          <mxGeometry x="269" y="424" width="40" height="30" as="geometry" />
        </mxCell>
        <mxCell id="Jd2PYMOuBTmMrBa2TlfO-68" value="D" style="text;html=1;align=center;verticalAlign=middle;resizable=0;points=[];autosize=1;strokeColor=none;fillColor=none;" parent="1" vertex="1">
          <mxGeometry x="271" y="335" width="30" height="30" as="geometry" />
        </mxCell>
        <mxCell id="Jd2PYMOuBTmMrBa2TlfO-69" value="En" style="text;html=1;align=center;verticalAlign=middle;resizable=0;points=[];autosize=1;strokeColor=none;fillColor=none;" parent="1" vertex="1">
          <mxGeometry x="269" y="324" width="40" height="30" as="geometry" />
        </mxCell>
        <mxCell id="Jd2PYMOuBTmMrBa2TlfO-70" value="D" style="text;html=1;align=center;verticalAlign=middle;resizable=0;points=[];autosize=1;strokeColor=none;fillColor=none;" parent="1" vertex="1">
          <mxGeometry x="271" y="285" width="30" height="30" as="geometry" />
        </mxCell>
        <mxCell id="Jd2PYMOuBTmMrBa2TlfO-71" value="En" style="text;html=1;align=center;verticalAlign=middle;resizable=0;points=[];autosize=1;strokeColor=none;fillColor=none;" parent="1" vertex="1">
          <mxGeometry x="269" y="274" width="40" height="30" as="geometry" />
        </mxCell>
        <mxCell id="Jd2PYMOuBTmMrBa2TlfO-73" value="" style="endArrow=classic;html=1;rounded=0;" parent="1" edge="1">
          <mxGeometry width="50" height="50" relative="1" as="geometry">
            <mxPoint x="400" y="299.75" as="sourcePoint" />
            <mxPoint x="460" y="299.75" as="targetPoint" />
          </mxGeometry>
        </mxCell>
        <mxCell id="Jd2PYMOuBTmMrBa2TlfO-74" value="" style="endArrow=classic;html=1;rounded=0;exitX=0.885;exitY=1;exitDx=0;exitDy=0;exitPerimeter=0;" parent="1" edge="1">
          <mxGeometry width="50" height="50" relative="1" as="geometry">
            <mxPoint x="400" y="349.86" as="sourcePoint" />
            <mxPoint x="460" y="349.86" as="targetPoint" />
          </mxGeometry>
        </mxCell>
        <mxCell id="Jd2PYMOuBTmMrBa2TlfO-75" value="" style="endArrow=classic;html=1;rounded=0;exitX=0.885;exitY=1;exitDx=0;exitDy=0;exitPerimeter=0;" parent="1" edge="1">
          <mxGeometry width="50" height="50" relative="1" as="geometry">
            <mxPoint x="400" y="449.86" as="sourcePoint" />
            <mxPoint x="460" y="449.86" as="targetPoint" />
          </mxGeometry>
        </mxCell>
        <mxCell id="Jd2PYMOuBTmMrBa2TlfO-76" value="" style="endArrow=classic;html=1;rounded=0;exitX=0.885;exitY=1;exitDx=0;exitDy=0;exitPerimeter=0;" parent="1" edge="1">
          <mxGeometry width="50" height="50" relative="1" as="geometry">
            <mxPoint x="400" y="499.86" as="sourcePoint" />
            <mxPoint x="460" y="499.86" as="targetPoint" />
          </mxGeometry>
        </mxCell>
        <mxCell id="Jd2PYMOuBTmMrBa2TlfO-77" value="" style="endArrow=classic;html=1;rounded=0;exitX=0.885;exitY=1;exitDx=0;exitDy=0;exitPerimeter=0;" parent="1" edge="1">
          <mxGeometry width="50" height="50" relative="1" as="geometry">
            <mxPoint x="540" y="300" as="sourcePoint" />
            <mxPoint x="600" y="300.1" as="targetPoint" />
          </mxGeometry>
        </mxCell>
        <mxCell id="Jd2PYMOuBTmMrBa2TlfO-78" value="" style="endArrow=classic;html=1;rounded=0;exitX=0.885;exitY=1;exitDx=0;exitDy=0;exitPerimeter=0;" parent="1" edge="1">
          <mxGeometry width="50" height="50" relative="1" as="geometry">
            <mxPoint x="540" y="349.94000000000005" as="sourcePoint" />
            <mxPoint x="600" y="349.94000000000005" as="targetPoint" />
          </mxGeometry>
        </mxCell>
        <mxCell id="Jd2PYMOuBTmMrBa2TlfO-79" value="" style="endArrow=classic;html=1;rounded=0;exitX=0.885;exitY=1;exitDx=0;exitDy=0;exitPerimeter=0;" parent="1" edge="1">
          <mxGeometry width="50" height="50" relative="1" as="geometry">
            <mxPoint x="540" y="449.94000000000005" as="sourcePoint" />
            <mxPoint x="600" y="449.94000000000005" as="targetPoint" />
          </mxGeometry>
        </mxCell>
        <mxCell id="Jd2PYMOuBTmMrBa2TlfO-80" value="" style="endArrow=classic;html=1;rounded=0;exitX=0.885;exitY=1;exitDx=0;exitDy=0;exitPerimeter=0;" parent="1" edge="1">
          <mxGeometry width="50" height="50" relative="1" as="geometry">
            <mxPoint x="540" y="499.94000000000005" as="sourcePoint" />
            <mxPoint x="600" y="499.94000000000005" as="targetPoint" />
          </mxGeometry>
        </mxCell>
        <mxCell id="Jd2PYMOuBTmMrBa2TlfO-89" value="&lt;p style=&quot;line-height: 0px;&quot;&gt;&lt;span style=&quot;font-size: 16px;&quot;&gt;&lt;b&gt;CAM&lt;/b&gt;&lt;/span&gt;&lt;/p&gt;&lt;p style=&quot;line-height: 0px;&quot;&gt;&lt;span style=&quot;font-size: 16px;&quot;&gt;&lt;b&gt;container&lt;/b&gt;&lt;/span&gt;&lt;/p&gt;" style="rounded=1;whiteSpace=wrap;html=1;arcSize=5;" parent="1" vertex="1">
          <mxGeometry x="320" y="80" width="120" height="80" as="geometry" />
        </mxCell>
        <mxCell id="Jd2PYMOuBTmMrBa2TlfO-93" value="" style="endArrow=classic;html=1;rounded=0;endFill=1;edgeStyle=orthogonalEdgeStyle;entryX=0;entryY=0.5;entryDx=0;entryDy=0;" parent="1" target="Jd2PYMOuBTmMrBa2TlfO-94" edge="1">
          <mxGeometry width="50" height="50" relative="1" as="geometry">
            <mxPoint x="260" y="180" as="sourcePoint" />
            <mxPoint x="380" y="170" as="targetPoint" />
          </mxGeometry>
        </mxCell>
        <mxCell id="Jd2PYMOuBTmMrBa2TlfO-94" value="" style="triangle;whiteSpace=wrap;html=1;rotation=-90;" parent="1" vertex="1">
          <mxGeometry x="376" y="148.75" width="8" height="14.5" as="geometry" />
        </mxCell>
        <mxCell id="Jd2PYMOuBTmMrBa2TlfO-99" value="" style="endArrow=classic;html=1;rounded=0;endFill=1;" parent="1" edge="1">
          <mxGeometry width="50" height="50" relative="1" as="geometry">
            <mxPoint x="260" y="146" as="sourcePoint" />
            <mxPoint x="320" y="146" as="targetPoint" />
          </mxGeometry>
        </mxCell>
        <mxCell id="Jd2PYMOuBTmMrBa2TlfO-100" value="" style="endArrow=classic;html=1;rounded=0;endFill=1;" parent="1" edge="1">
          <mxGeometry width="50" height="50" relative="1" as="geometry">
            <mxPoint x="260" y="130" as="sourcePoint" />
            <mxPoint x="320" y="130" as="targetPoint" />
          </mxGeometry>
        </mxCell>
        <mxCell id="Jd2PYMOuBTmMrBa2TlfO-101" style="edgeStyle=orthogonalEdgeStyle;rounded=0;orthogonalLoop=1;jettySize=auto;html=1;exitX=0;exitY=0.25;exitDx=0;exitDy=0;exitPerimeter=0;endArrow=none;endFill=0;" parent="1" edge="1">
          <mxGeometry relative="1" as="geometry">
            <mxPoint x="230" y="115" as="targetPoint" />
            <mxPoint x="264.5" y="115" as="sourcePoint" />
          </mxGeometry>
        </mxCell>
        <mxCell id="Jd2PYMOuBTmMrBa2TlfO-102" value="" style="verticalLabelPosition=bottom;shadow=0;dashed=0;align=center;html=1;verticalAlign=top;shape=mxgraph.electrical.logic_gates.logic_gate;operation=and;rotation=0;" parent="1" vertex="1">
          <mxGeometry x="264.5" y="100" width="35" height="20" as="geometry" />
        </mxCell>
        <mxCell id="Jd2PYMOuBTmMrBa2TlfO-105" style="edgeStyle=orthogonalEdgeStyle;rounded=0;orthogonalLoop=1;jettySize=auto;html=1;exitX=0;exitY=0.5;exitDx=0;exitDy=0;exitPerimeter=0;endArrow=none;endFill=0;" parent="1" source="Jd2PYMOuBTmMrBa2TlfO-103" edge="1">
          <mxGeometry relative="1" as="geometry">
            <mxPoint x="240" y="90" as="targetPoint" />
          </mxGeometry>
        </mxCell>
        <mxCell id="Jd2PYMOuBTmMrBa2TlfO-103" value="" style="verticalLabelPosition=bottom;shadow=0;dashed=0;align=center;html=1;verticalAlign=top;shape=mxgraph.electrical.logic_gates.inverter_2;rotation=0;" parent="1" vertex="1">
          <mxGeometry x="244" y="97" width="25" height="16" as="geometry" />
        </mxCell>
        <mxCell id="Jd2PYMOuBTmMrBa2TlfO-104" style="edgeStyle=orthogonalEdgeStyle;rounded=0;orthogonalLoop=1;jettySize=auto;html=1;exitX=1;exitY=0.5;exitDx=0;exitDy=0;exitPerimeter=0;entryX=0;entryY=0.126;entryDx=0;entryDy=0;entryPerimeter=0;" parent="1" source="Jd2PYMOuBTmMrBa2TlfO-102" edge="1">
          <mxGeometry relative="1" as="geometry">
            <mxPoint x="320" y="110.08000000000001" as="targetPoint" />
          </mxGeometry>
        </mxCell>
        <mxCell id="Jd2PYMOuBTmMrBa2TlfO-106" style="edgeStyle=orthogonalEdgeStyle;rounded=0;orthogonalLoop=1;jettySize=auto;html=1;endArrow=none;endFill=0;startArrow=classic;startFill=1;" parent="1" edge="1">
          <mxGeometry relative="1" as="geometry">
            <mxPoint x="230" y="90" as="targetPoint" />
            <mxPoint x="260" y="90" as="sourcePoint" />
          </mxGeometry>
        </mxCell>
        <mxCell id="Jd2PYMOuBTmMrBa2TlfO-107" value="" style="shape=ellipse;fillColor=#000000;strokeColor=none;html=1;sketch=0;fontFamily=Helvetica;fontSize=11;fontColor=default;labelBackgroundColor=default;" parent="1" vertex="1">
          <mxGeometry x="237" y="87" width="6" height="6" as="geometry" />
        </mxCell>
        <mxCell id="Jd2PYMOuBTmMrBa2TlfO-109" value="w" style="text;html=1;align=center;verticalAlign=middle;resizable=0;points=[];autosize=1;strokeColor=none;fillColor=none;" parent="1" vertex="1">
          <mxGeometry x="136" y="384" width="30" height="30" as="geometry" />
        </mxCell>
        <mxCell id="Jd2PYMOuBTmMrBa2TlfO-110" value="0" style="text;html=1;align=center;verticalAlign=middle;resizable=0;points=[];autosize=1;strokeColor=none;fillColor=none;" parent="1" vertex="1">
          <mxGeometry x="217" y="274" width="30" height="30" as="geometry" />
        </mxCell>
        <mxCell id="Jd2PYMOuBTmMrBa2TlfO-111" value="1" style="text;html=1;align=center;verticalAlign=middle;resizable=0;points=[];autosize=1;strokeColor=none;fillColor=none;" parent="1" vertex="1">
          <mxGeometry x="217" y="324" width="30" height="30" as="geometry" />
        </mxCell>
        <mxCell id="Jd2PYMOuBTmMrBa2TlfO-112" value="14" style="text;html=1;align=center;verticalAlign=middle;resizable=0;points=[];autosize=1;strokeColor=none;fillColor=none;" parent="1" vertex="1">
          <mxGeometry x="209" y="424" width="40" height="30" as="geometry" />
        </mxCell>
        <mxCell id="Jd2PYMOuBTmMrBa2TlfO-113" value="15" style="text;html=1;align=center;verticalAlign=middle;resizable=0;points=[];autosize=1;strokeColor=none;fillColor=none;" parent="1" vertex="1">
          <mxGeometry x="209" y="475" width="40" height="30" as="geometry" />
        </mxCell>
        <mxCell id="Jd2PYMOuBTmMrBa2TlfO-114" value="0" style="text;html=1;align=center;verticalAlign=middle;resizable=0;points=[];autosize=1;strokeColor=none;fillColor=none;" parent="1" vertex="1">
          <mxGeometry x="454" y="285" width="30" height="30" as="geometry" />
        </mxCell>
        <mxCell id="Jd2PYMOuBTmMrBa2TlfO-115" value="1" style="text;html=1;align=center;verticalAlign=middle;resizable=0;points=[];autosize=1;strokeColor=none;fillColor=none;" parent="1" vertex="1">
          <mxGeometry x="454" y="335" width="30" height="30" as="geometry" />
        </mxCell>
        <mxCell id="Jd2PYMOuBTmMrBa2TlfO-116" value="14" style="text;html=1;align=center;verticalAlign=middle;resizable=0;points=[];autosize=1;strokeColor=none;fillColor=none;" parent="1" vertex="1">
          <mxGeometry x="449" y="435" width="40" height="30" as="geometry" />
        </mxCell>
        <mxCell id="Jd2PYMOuBTmMrBa2TlfO-117" value="15" style="text;html=1;align=center;verticalAlign=middle;resizable=0;points=[];autosize=1;strokeColor=none;fillColor=none;" parent="1" vertex="1">
          <mxGeometry x="449" y="486" width="40" height="30" as="geometry" />
        </mxCell>
        <mxCell id="Jd2PYMOuBTmMrBa2TlfO-118" value="0" style="text;html=1;align=center;verticalAlign=middle;resizable=0;points=[];autosize=1;strokeColor=none;fillColor=none;" parent="1" vertex="1">
          <mxGeometry x="516" y="284.5" width="30" height="30" as="geometry" />
        </mxCell>
        <mxCell id="Jd2PYMOuBTmMrBa2TlfO-119" value="1" style="text;html=1;align=center;verticalAlign=middle;resizable=0;points=[];autosize=1;strokeColor=none;fillColor=none;" parent="1" vertex="1">
          <mxGeometry x="516" y="334.5" width="30" height="30" as="geometry" />
        </mxCell>
        <mxCell id="Jd2PYMOuBTmMrBa2TlfO-120" value="14" style="text;html=1;align=center;verticalAlign=middle;resizable=0;points=[];autosize=1;strokeColor=none;fillColor=none;" parent="1" vertex="1">
          <mxGeometry x="509" y="434.5" width="40" height="30" as="geometry" />
        </mxCell>
        <mxCell id="Jd2PYMOuBTmMrBa2TlfO-121" value="15" style="text;html=1;align=center;verticalAlign=middle;resizable=0;points=[];autosize=1;strokeColor=none;fillColor=none;" parent="1" vertex="1">
          <mxGeometry x="509" y="485.5" width="40" height="30" as="geometry" />
        </mxCell>
        <mxCell id="Jd2PYMOuBTmMrBa2TlfO-122" value="0" style="text;html=1;align=center;verticalAlign=middle;resizable=0;points=[];autosize=1;strokeColor=none;fillColor=none;" parent="1" vertex="1">
          <mxGeometry x="595" y="285" width="30" height="30" as="geometry" />
        </mxCell>
        <mxCell id="Jd2PYMOuBTmMrBa2TlfO-123" value="1" style="text;html=1;align=center;verticalAlign=middle;resizable=0;points=[];autosize=1;strokeColor=none;fillColor=none;" parent="1" vertex="1">
          <mxGeometry x="595" y="335" width="30" height="30" as="geometry" />
        </mxCell>
        <mxCell id="Jd2PYMOuBTmMrBa2TlfO-124" value="14" style="text;html=1;align=center;verticalAlign=middle;resizable=0;points=[];autosize=1;strokeColor=none;fillColor=none;" parent="1" vertex="1">
          <mxGeometry x="590" y="435" width="40" height="30" as="geometry" />
        </mxCell>
        <mxCell id="Jd2PYMOuBTmMrBa2TlfO-125" value="15" style="text;html=1;align=center;verticalAlign=middle;resizable=0;points=[];autosize=1;strokeColor=none;fillColor=none;" parent="1" vertex="1">
          <mxGeometry x="590" y="486" width="40" height="30" as="geometry" />
        </mxCell>
        <mxCell id="Jd2PYMOuBTmMrBa2TlfO-131" value="match[1]" style="text;html=1;align=center;verticalAlign=middle;resizable=0;points=[];autosize=1;strokeColor=none;fillColor=none;fontColor=#999999;" parent="1" vertex="1">
          <mxGeometry x="528" y="327" width="70" height="30" as="geometry" />
        </mxCell>
        <mxCell id="Jd2PYMOuBTmMrBa2TlfO-132" value="match[0]" style="text;html=1;align=center;verticalAlign=middle;resizable=0;points=[];autosize=1;strokeColor=none;fillColor=none;fontColor=#999999;" parent="1" vertex="1">
          <mxGeometry x="529" y="277" width="70" height="30" as="geometry" />
        </mxCell>
        <mxCell id="Jd2PYMOuBTmMrBa2TlfO-133" value="match[14]" style="text;html=1;align=center;verticalAlign=middle;resizable=0;points=[];autosize=1;strokeColor=none;fillColor=none;fontColor=#999999;" parent="1" vertex="1">
          <mxGeometry x="526" y="427" width="80" height="30" as="geometry" />
        </mxCell>
        <mxCell id="Jd2PYMOuBTmMrBa2TlfO-134" value="match[15]" style="text;html=1;align=center;verticalAlign=middle;resizable=0;points=[];autosize=1;strokeColor=none;fillColor=none;fontColor=#999999;" parent="1" vertex="1">
          <mxGeometry x="526" y="477" width="80" height="30" as="geometry" />
        </mxCell>
        <mxCell id="Jd2PYMOuBTmMrBa2TlfO-136" value="out" style="text;html=1;align=center;verticalAlign=middle;resizable=0;points=[];autosize=1;strokeColor=none;fillColor=none;" parent="1" vertex="1">
          <mxGeometry x="780" y="365" width="40" height="30" as="geometry" />
        </mxCell>
        <mxCell id="Jd2PYMOuBTmMrBa2TlfO-137" value="match" style="text;html=1;align=center;verticalAlign=middle;resizable=0;points=[];autosize=1;strokeColor=none;fillColor=none;" parent="1" vertex="1">
          <mxGeometry x="498" y="553" width="60" height="30" as="geometry" />
        </mxCell>
        <mxCell id="Jd2PYMOuBTmMrBa2TlfO-138" value="in" style="text;html=1;align=center;verticalAlign=middle;resizable=0;points=[];autosize=1;strokeColor=none;fillColor=none;" parent="1" vertex="1">
          <mxGeometry x="485" y="495" width="30" height="30" as="geometry" />
        </mxCell>
        <mxCell id="Jd2PYMOuBTmMrBa2TlfO-139" value="16&#39;d0" style="text;html=1;align=center;verticalAlign=middle;resizable=0;points=[];autosize=1;strokeColor=none;fillColor=none;" parent="1" vertex="1">
          <mxGeometry x="505" y="574" width="50" height="30" as="geometry" />
        </mxCell>
        <mxCell id="Jd2PYMOuBTmMrBa2TlfO-140" value="&lt;p style=&quot;line-height: 0%;&quot;&gt;&lt;span style=&quot;font-size: 16px;&quot;&gt;&lt;b&gt;==&lt;/b&gt;&lt;/span&gt;&lt;/p&gt;&lt;p style=&quot;line-height: 0%;&quot;&gt;16bit&lt;/p&gt;&lt;p&gt;&lt;/p&gt;" style="rounded=1;whiteSpace=wrap;html=1;" parent="1" vertex="1">
          <mxGeometry x="578" y="560" width="40" height="40" as="geometry" />
        </mxCell>
        <mxCell id="Jd2PYMOuBTmMrBa2TlfO-141" value="" style="endArrow=classic;html=1;rounded=0;" parent="1" edge="1">
          <mxGeometry width="50" height="50" relative="1" as="geometry">
            <mxPoint x="548" y="570" as="sourcePoint" />
            <mxPoint x="578" y="570" as="targetPoint" />
          </mxGeometry>
        </mxCell>
        <mxCell id="Jd2PYMOuBTmMrBa2TlfO-142" value="" style="endArrow=classic;html=1;rounded=0;" parent="1" edge="1">
          <mxGeometry width="50" height="50" relative="1" as="geometry">
            <mxPoint x="548" y="590" as="sourcePoint" />
            <mxPoint x="578" y="589.89" as="targetPoint" />
          </mxGeometry>
        </mxCell>
        <mxCell id="Jd2PYMOuBTmMrBa2TlfO-143" value="" style="endArrow=none;html=1;rounded=0;exitX=1;exitY=0.5;exitDx=0;exitDy=0;endFill=0;" parent="1" source="Jd2PYMOuBTmMrBa2TlfO-140" edge="1">
          <mxGeometry width="50" height="50" relative="1" as="geometry">
            <mxPoint x="648" y="610" as="sourcePoint" />
            <mxPoint x="638" y="580" as="targetPoint" />
          </mxGeometry>
        </mxCell>
        <mxCell id="Jd2PYMOuBTmMrBa2TlfO-148" style="edgeStyle=orthogonalEdgeStyle;rounded=0;orthogonalLoop=1;jettySize=auto;html=1;exitX=1;exitY=0.5;exitDx=0;exitDy=0;exitPerimeter=0;endArrow=none;endFill=0;" parent="1" source="Jd2PYMOuBTmMrBa2TlfO-144" edge="1">
          <mxGeometry relative="1" as="geometry">
            <mxPoint x="718" y="585.059405940594" as="targetPoint" />
          </mxGeometry>
        </mxCell>
        <mxCell id="Jd2PYMOuBTmMrBa2TlfO-144" value="" style="verticalLabelPosition=bottom;shadow=0;dashed=0;align=center;html=1;verticalAlign=top;shape=mxgraph.electrical.logic_gates.logic_gate;operation=and;rotation=0;" parent="1" vertex="1">
          <mxGeometry x="668" y="575" width="35" height="20" as="geometry" />
        </mxCell>
        <mxCell id="Jd2PYMOuBTmMrBa2TlfO-145" value="" style="verticalLabelPosition=bottom;shadow=0;dashed=0;align=center;html=1;verticalAlign=top;shape=mxgraph.electrical.logic_gates.inverter_2;rotation=0;" parent="1" vertex="1">
          <mxGeometry x="638" y="572" width="25" height="16" as="geometry" />
        </mxCell>
        <mxCell id="Jd2PYMOuBTmMrBa2TlfO-146" style="edgeStyle=orthogonalEdgeStyle;rounded=0;orthogonalLoop=1;jettySize=auto;html=1;exitX=1;exitY=0.5;exitDx=0;exitDy=0;exitPerimeter=0;entryX=0;entryY=0.25;entryDx=0;entryDy=0;entryPerimeter=0;endArrow=none;endFill=0;" parent="1" source="Jd2PYMOuBTmMrBa2TlfO-145" target="Jd2PYMOuBTmMrBa2TlfO-144" edge="1">
          <mxGeometry relative="1" as="geometry" />
        </mxCell>
        <mxCell id="Jd2PYMOuBTmMrBa2TlfO-147" value="r" style="text;html=1;align=center;verticalAlign=middle;resizable=0;points=[];autosize=1;strokeColor=none;fillColor=none;" parent="1" vertex="1">
          <mxGeometry x="647" y="574" width="30" height="30" as="geometry" />
        </mxCell>
        <mxCell id="Jd2PYMOuBTmMrBa2TlfO-149" value="hit" style="text;html=1;align=center;verticalAlign=middle;resizable=0;points=[];autosize=1;strokeColor=none;fillColor=none;" parent="1" vertex="1">
          <mxGeometry x="707" y="570" width="40" height="30" as="geometry" />
        </mxCell>
        <mxCell id="Jd2PYMOuBTmMrBa2TlfO-150" value="" style="group" parent="1" vertex="1" connectable="0">
          <mxGeometry x="543" y="545" width="35" height="31" as="geometry" />
        </mxCell>
        <mxCell id="Jd2PYMOuBTmMrBa2TlfO-151" value="" style="endArrow=none;html=1;rounded=0;" parent="Jd2PYMOuBTmMrBa2TlfO-150" edge="1">
          <mxGeometry width="50" height="50" relative="1" as="geometry">
            <mxPoint x="12" y="31" as="sourcePoint" />
            <mxPoint x="18" y="21" as="targetPoint" />
          </mxGeometry>
        </mxCell>
        <mxCell id="Jd2PYMOuBTmMrBa2TlfO-152" value="16" style="text;html=1;align=center;verticalAlign=middle;resizable=0;points=[];autosize=1;strokeColor=none;fillColor=none;" parent="Jd2PYMOuBTmMrBa2TlfO-150" vertex="1">
          <mxGeometry x="-5" width="40" height="30" as="geometry" />
        </mxCell>
        <mxCell id="Jd2PYMOuBTmMrBa2TlfO-153" value="" style="group" parent="1" vertex="1" connectable="0">
          <mxGeometry x="543" y="564" width="35" height="31" as="geometry" />
        </mxCell>
        <mxCell id="Jd2PYMOuBTmMrBa2TlfO-154" value="" style="endArrow=none;html=1;rounded=0;" parent="Jd2PYMOuBTmMrBa2TlfO-153" edge="1">
          <mxGeometry width="50" height="50" relative="1" as="geometry">
            <mxPoint x="12" y="31" as="sourcePoint" />
            <mxPoint x="18" y="21" as="targetPoint" />
          </mxGeometry>
        </mxCell>
        <mxCell id="Jd2PYMOuBTmMrBa2TlfO-155" value="16" style="text;html=1;align=center;verticalAlign=middle;resizable=0;points=[];autosize=1;strokeColor=none;fillColor=none;" parent="1" vertex="1">
          <mxGeometry x="538" y="585" width="40" height="30" as="geometry" />
        </mxCell>
        <mxCell id="Jd2PYMOuBTmMrBa2TlfO-157" value="" style="group" parent="1" vertex="1" connectable="0">
          <mxGeometry x="165" y="554" width="30" height="30" as="geometry" />
        </mxCell>
        <mxCell id="Jd2PYMOuBTmMrBa2TlfO-29" value="4" style="text;html=1;align=center;verticalAlign=middle;resizable=0;points=[];autosize=1;strokeColor=none;fillColor=none;" parent="Jd2PYMOuBTmMrBa2TlfO-157" vertex="1">
          <mxGeometry width="30" height="30" as="geometry" />
        </mxCell>
        <mxCell id="Jd2PYMOuBTmMrBa2TlfO-28" value="" style="endArrow=none;html=1;rounded=0;" parent="Jd2PYMOuBTmMrBa2TlfO-157" edge="1">
          <mxGeometry width="50" height="50" relative="1" as="geometry">
            <mxPoint x="12" y="11" as="sourcePoint" />
            <mxPoint x="18" y="1" as="targetPoint" />
          </mxGeometry>
        </mxCell>
        <mxCell id="Jd2PYMOuBTmMrBa2TlfO-158" value="" style="group" parent="1" vertex="1" connectable="0">
          <mxGeometry x="405" y="495" width="30" height="30" as="geometry" />
        </mxCell>
        <mxCell id="Jd2PYMOuBTmMrBa2TlfO-159" value="8" style="text;html=1;align=center;verticalAlign=middle;resizable=0;points=[];autosize=1;strokeColor=none;fillColor=none;" parent="Jd2PYMOuBTmMrBa2TlfO-158" vertex="1">
          <mxGeometry width="30" height="30" as="geometry" />
        </mxCell>
        <mxCell id="Jd2PYMOuBTmMrBa2TlfO-160" value="" style="endArrow=none;html=1;rounded=0;" parent="Jd2PYMOuBTmMrBa2TlfO-158" edge="1">
          <mxGeometry width="50" height="50" relative="1" as="geometry">
            <mxPoint x="12" y="11" as="sourcePoint" />
            <mxPoint x="18" y="1" as="targetPoint" />
          </mxGeometry>
        </mxCell>
        <mxCell id="Jd2PYMOuBTmMrBa2TlfO-161" value="" style="group" parent="1" vertex="1" connectable="0">
          <mxGeometry x="404" y="445" width="30" height="30" as="geometry" />
        </mxCell>
        <mxCell id="Jd2PYMOuBTmMrBa2TlfO-162" value="8" style="text;html=1;align=center;verticalAlign=middle;resizable=0;points=[];autosize=1;strokeColor=none;fillColor=none;" parent="Jd2PYMOuBTmMrBa2TlfO-161" vertex="1">
          <mxGeometry width="30" height="30" as="geometry" />
        </mxCell>
        <mxCell id="Jd2PYMOuBTmMrBa2TlfO-163" value="" style="endArrow=none;html=1;rounded=0;" parent="Jd2PYMOuBTmMrBa2TlfO-161" edge="1">
          <mxGeometry width="50" height="50" relative="1" as="geometry">
            <mxPoint x="12" y="11" as="sourcePoint" />
            <mxPoint x="18" y="1" as="targetPoint" />
          </mxGeometry>
        </mxCell>
        <mxCell id="Jd2PYMOuBTmMrBa2TlfO-164" value="" style="group" parent="1" vertex="1" connectable="0">
          <mxGeometry x="404" y="345" width="30" height="30" as="geometry" />
        </mxCell>
        <mxCell id="Jd2PYMOuBTmMrBa2TlfO-165" value="8" style="text;html=1;align=center;verticalAlign=middle;resizable=0;points=[];autosize=1;strokeColor=none;fillColor=none;" parent="Jd2PYMOuBTmMrBa2TlfO-164" vertex="1">
          <mxGeometry width="30" height="30" as="geometry" />
        </mxCell>
        <mxCell id="Jd2PYMOuBTmMrBa2TlfO-166" value="" style="endArrow=none;html=1;rounded=0;" parent="Jd2PYMOuBTmMrBa2TlfO-164" edge="1">
          <mxGeometry width="50" height="50" relative="1" as="geometry">
            <mxPoint x="12" y="11" as="sourcePoint" />
            <mxPoint x="18" y="1" as="targetPoint" />
          </mxGeometry>
        </mxCell>
        <mxCell id="Jd2PYMOuBTmMrBa2TlfO-167" value="" style="group" parent="1" vertex="1" connectable="0">
          <mxGeometry x="405" y="295" width="30" height="30" as="geometry" />
        </mxCell>
        <mxCell id="Jd2PYMOuBTmMrBa2TlfO-168" value="8" style="text;html=1;align=center;verticalAlign=middle;resizable=0;points=[];autosize=1;strokeColor=none;fillColor=none;" parent="Jd2PYMOuBTmMrBa2TlfO-167" vertex="1">
          <mxGeometry width="30" height="30" as="geometry" />
        </mxCell>
        <mxCell id="Jd2PYMOuBTmMrBa2TlfO-169" value="" style="endArrow=none;html=1;rounded=0;" parent="Jd2PYMOuBTmMrBa2TlfO-167" edge="1">
          <mxGeometry width="50" height="50" relative="1" as="geometry">
            <mxPoint x="12" y="11" as="sourcePoint" />
            <mxPoint x="18" y="1" as="targetPoint" />
          </mxGeometry>
        </mxCell>
        <mxCell id="Jd2PYMOuBTmMrBa2TlfO-170" style="edgeStyle=orthogonalEdgeStyle;rounded=0;orthogonalLoop=1;jettySize=auto;html=1;exitX=1;exitY=0.5;exitDx=0;exitDy=0;" parent="1" edge="1">
          <mxGeometry relative="1" as="geometry">
            <mxPoint x="460" y="130" as="targetPoint" />
            <mxPoint x="440" y="130" as="sourcePoint" />
            <Array as="points">
              <mxPoint x="460" y="130" />
              <mxPoint x="460" y="130" />
            </Array>
          </mxGeometry>
        </mxCell>
        <mxCell id="Jd2PYMOuBTmMrBa2TlfO-171" style="edgeStyle=orthogonalEdgeStyle;rounded=0;orthogonalLoop=1;jettySize=auto;html=1;exitX=1;exitY=0.5;exitDx=0;exitDy=0;" parent="1" edge="1">
          <mxGeometry relative="1" as="geometry">
            <mxPoint x="460" y="110" as="targetPoint" />
            <mxPoint x="440" y="109.85" as="sourcePoint" />
            <Array as="points">
              <mxPoint x="450" y="109.85" />
              <mxPoint x="450" y="109.85" />
            </Array>
          </mxGeometry>
        </mxCell>
        <mxCell id="Jd2PYMOuBTmMrBa2TlfO-181" value="hit" style="text;html=1;align=center;verticalAlign=middle;resizable=0;points=[];autosize=1;strokeColor=none;fillColor=none;" parent="1" vertex="1">
          <mxGeometry x="448" y="115" width="40" height="30" as="geometry" />
        </mxCell>
        <mxCell id="Jd2PYMOuBTmMrBa2TlfO-182" value="dout" style="text;html=1;align=center;verticalAlign=middle;resizable=0;points=[];autosize=1;strokeColor=none;fillColor=none;" parent="1" vertex="1">
          <mxGeometry x="448" y="95" width="50" height="30" as="geometry" />
        </mxCell>
        <mxCell id="Jd2PYMOuBTmMrBa2TlfO-185" style="edgeStyle=orthogonalEdgeStyle;rounded=0;orthogonalLoop=1;jettySize=auto;html=1;exitX=0.5;exitY=0;exitDx=0;exitDy=0;" parent="1" source="Jd2PYMOuBTmMrBa2TlfO-184" edge="1">
          <mxGeometry relative="1" as="geometry">
            <mxPoint x="790" y="379.974358974359" as="targetPoint" />
          </mxGeometry>
        </mxCell>
        <mxCell id="Jd2PYMOuBTmMrBa2TlfO-184" value="" style="shape=trapezoid;perimeter=trapezoidPerimeter;whiteSpace=wrap;html=1;fixedSize=1;rotation=90;" parent="1" vertex="1">
          <mxGeometry x="710" y="360" width="80" height="40" as="geometry" />
        </mxCell>
        <mxCell id="Jd2PYMOuBTmMrBa2TlfO-186" value="" style="endArrow=classic;html=1;rounded=0;" parent="1" edge="1">
          <mxGeometry width="50" height="50" relative="1" as="geometry">
            <mxPoint x="749.87" y="430" as="sourcePoint" />
            <mxPoint x="749.87" y="410" as="targetPoint" />
          </mxGeometry>
        </mxCell>
        <mxCell id="Jd2PYMOuBTmMrBa2TlfO-188" value="r" style="text;html=1;align=center;verticalAlign=middle;resizable=0;points=[];autosize=1;strokeColor=none;fillColor=none;" parent="1" vertex="1">
          <mxGeometry x="735" y="420" width="30" height="30" as="geometry" />
        </mxCell>
        <mxCell id="Jd2PYMOuBTmMrBa2TlfO-191" style="edgeStyle=orthogonalEdgeStyle;rounded=0;orthogonalLoop=1;jettySize=auto;html=1;exitX=0.5;exitY=0;exitDx=0;exitDy=0;" parent="1" edge="1">
          <mxGeometry relative="1" as="geometry">
            <mxPoint x="730" y="360.004358974359" as="targetPoint" />
            <mxPoint x="710" y="360.03" as="sourcePoint" />
          </mxGeometry>
        </mxCell>
        <mxCell id="Jd2PYMOuBTmMrBa2TlfO-192" value="4&#39;d0" style="text;html=1;align=center;verticalAlign=middle;resizable=0;points=[];autosize=1;strokeColor=none;fillColor=none;" parent="1" vertex="1">
          <mxGeometry x="672" y="344" width="50" height="30" as="geometry" />
        </mxCell>
        <mxCell id="Jd2PYMOuBTmMrBa2TlfO-196" value="" style="group" parent="1" vertex="1" connectable="0">
          <mxGeometry x="700" y="375" width="30" height="30" as="geometry" />
        </mxCell>
        <mxCell id="Jd2PYMOuBTmMrBa2TlfO-194" value="4" style="text;html=1;align=center;verticalAlign=middle;resizable=0;points=[];autosize=1;strokeColor=none;fillColor=none;" parent="Jd2PYMOuBTmMrBa2TlfO-196" vertex="1">
          <mxGeometry width="30" height="30" as="geometry" />
        </mxCell>
        <mxCell id="Jd2PYMOuBTmMrBa2TlfO-195" value="" style="endArrow=none;html=1;rounded=0;" parent="Jd2PYMOuBTmMrBa2TlfO-196" edge="1">
          <mxGeometry width="50" height="50" relative="1" as="geometry">
            <mxPoint x="12" y="30" as="sourcePoint" />
            <mxPoint x="18" y="20" as="targetPoint" />
          </mxGeometry>
        </mxCell>
        <mxCell id="Jd2PYMOuBTmMrBa2TlfO-197" value="" style="group" parent="1" vertex="1" connectable="0">
          <mxGeometry x="700" y="335" width="30" height="30" as="geometry" />
        </mxCell>
        <mxCell id="Jd2PYMOuBTmMrBa2TlfO-198" value="4" style="text;html=1;align=center;verticalAlign=middle;resizable=0;points=[];autosize=1;strokeColor=none;fillColor=none;" parent="Jd2PYMOuBTmMrBa2TlfO-197" vertex="1">
          <mxGeometry width="30" height="30" as="geometry" />
        </mxCell>
        <mxCell id="Jd2PYMOuBTmMrBa2TlfO-199" value="" style="endArrow=none;html=1;rounded=0;" parent="Jd2PYMOuBTmMrBa2TlfO-197" edge="1">
          <mxGeometry width="50" height="50" relative="1" as="geometry">
            <mxPoint x="12" y="30" as="sourcePoint" />
            <mxPoint x="18" y="20" as="targetPoint" />
          </mxGeometry>
        </mxCell>
        <mxCell id="Jd2PYMOuBTmMrBa2TlfO-200" value="&lt;b&gt;MUX&lt;/b&gt;&lt;div style=&quot;font-size: 8px;&quot;&gt;&lt;font style=&quot;font-size: 8px;&quot;&gt;4bit&lt;/font&gt;&lt;/div&gt;&lt;div style=&quot;font-size: 8px;&quot;&gt;&lt;font style=&quot;font-size: 8px;&quot;&gt;1bit-sel&lt;/font&gt;&lt;/div&gt;" style="text;html=1;align=center;verticalAlign=middle;resizable=0;points=[];autosize=1;strokeColor=none;fillColor=none;" parent="1" vertex="1">
          <mxGeometry x="725" y="356" width="50" height="50" as="geometry" />
        </mxCell>
        <mxCell id="Jd2PYMOuBTmMrBa2TlfO-201" value="&lt;b&gt;DFF&lt;/b&gt;" style="rounded=1;whiteSpace=wrap;html=1;" parent="1" vertex="1">
          <mxGeometry x="259.5" y="77" width="40" height="20" as="geometry" />
        </mxCell>
        <mxCell id="Jd2PYMOuBTmMrBa2TlfO-202" value="" style="triangle;whiteSpace=wrap;html=1;rotation=90;" parent="1" vertex="1">
          <mxGeometry x="277.5" y="77" width="4" height="5" as="geometry" />
        </mxCell>
        <mxCell id="Jd2PYMOuBTmMrBa2TlfO-203" value="" style="endArrow=classic;html=1;rounded=0;endSize=1;" parent="1" edge="1">
          <mxGeometry width="50" height="50" relative="1" as="geometry">
            <mxPoint x="279.89" y="67" as="sourcePoint" />
            <mxPoint x="279.89" y="77" as="targetPoint" />
          </mxGeometry>
        </mxCell>
        <mxCell id="Jd2PYMOuBTmMrBa2TlfO-204" value="clk" style="text;html=1;align=center;verticalAlign=middle;resizable=0;points=[];autosize=1;strokeColor=none;fillColor=none;fontSize=8;" parent="1" vertex="1">
          <mxGeometry x="264" y="53" width="30" height="20" as="geometry" />
        </mxCell>
        <mxCell id="Jd2PYMOuBTmMrBa2TlfO-205" style="edgeStyle=orthogonalEdgeStyle;rounded=0;orthogonalLoop=1;jettySize=auto;html=1;endArrow=none;endFill=0;startArrow=classic;startFill=1;" parent="1" edge="1">
          <mxGeometry relative="1" as="geometry">
            <mxPoint x="300" y="90" as="targetPoint" />
            <mxPoint x="320" y="89.91" as="sourcePoint" />
          </mxGeometry>
        </mxCell>
        <mxCell id="Jd2PYMOuBTmMrBa2TlfO-206" value="ren" style="text;html=1;align=center;verticalAlign=middle;resizable=0;points=[];autosize=1;strokeColor=none;fillColor=none;" parent="1" vertex="1">
          <mxGeometry x="198" y="73" width="40" height="30" as="geometry" />
        </mxCell>
        <mxCell id="Jd2PYMOuBTmMrBa2TlfO-207" value="wen" style="text;html=1;align=center;verticalAlign=middle;resizable=0;points=[];autosize=1;strokeColor=none;fillColor=none;" parent="1" vertex="1">
          <mxGeometry x="192" y="98" width="50" height="30" as="geometry" />
        </mxCell>
        <mxCell id="Jd2PYMOuBTmMrBa2TlfO-208" value="addr[3:0]" style="text;html=1;align=center;verticalAlign=middle;resizable=0;points=[];autosize=1;strokeColor=none;fillColor=none;" parent="1" vertex="1">
          <mxGeometry x="199" y="130" width="70" height="30" as="geometry" />
        </mxCell>
        <mxCell id="Jd2PYMOuBTmMrBa2TlfO-209" value="din[7:0]" style="text;html=1;align=center;verticalAlign=middle;resizable=0;points=[];autosize=1;strokeColor=none;fillColor=none;" parent="1" vertex="1">
          <mxGeometry x="208" y="114" width="60" height="30" as="geometry" />
        </mxCell>
        <mxCell id="Jd2PYMOuBTmMrBa2TlfO-210" value="r" style="text;html=1;align=center;verticalAlign=middle;resizable=0;points=[];autosize=1;strokeColor=none;fillColor=none;" parent="1" vertex="1">
          <mxGeometry x="311" y="74" width="30" height="30" as="geometry" />
        </mxCell>
        <mxCell id="Jd2PYMOuBTmMrBa2TlfO-211" value="w" style="text;html=1;align=center;verticalAlign=middle;resizable=0;points=[];autosize=1;strokeColor=none;fillColor=none;" parent="1" vertex="1">
          <mxGeometry x="312" y="94" width="30" height="30" as="geometry" />
        </mxCell>
        <mxCell id="Jd2PYMOuBTmMrBa2TlfO-212" value="addr" style="text;html=1;align=center;verticalAlign=middle;resizable=0;points=[];autosize=1;strokeColor=none;fillColor=none;" parent="1" vertex="1">
          <mxGeometry x="309" y="130" width="50" height="30" as="geometry" />
        </mxCell>
        <mxCell id="Jd2PYMOuBTmMrBa2TlfO-213" value="in" style="text;html=1;align=center;verticalAlign=middle;resizable=0;points=[];autosize=1;strokeColor=none;fillColor=none;" parent="1" vertex="1">
          <mxGeometry x="312" y="114" width="30" height="30" as="geometry" />
        </mxCell>
        <mxCell id="Jd2PYMOuBTmMrBa2TlfO-214" value="clk" style="text;html=1;align=center;verticalAlign=middle;resizable=0;points=[];autosize=1;strokeColor=none;fillColor=none;" parent="1" vertex="1">
          <mxGeometry x="229" y="163.25" width="40" height="30" as="geometry" />
        </mxCell>
        <mxCell id="Jd2PYMOuBTmMrBa2TlfO-215" value="&lt;div style=&quot;color: rgb(248, 248, 242); background-color: rgb(38, 41, 44); font-family: &amp;quot;Fira Code&amp;quot;, Consolas, &amp;quot;Courier New&amp;quot;, monospace, Menlo, Monaco, &amp;quot;Courier New&amp;quot;, monospace; font-size: 16px; line-height: 24px; white-space-collapse: preserve;&quot;&gt;Top Module&lt;/div&gt;" style="text;html=1;align=center;verticalAlign=middle;resizable=0;points=[];autosize=1;strokeColor=none;fillColor=none;" parent="1" vertex="1">
          <mxGeometry x="157" width="120" height="40" as="geometry" />
        </mxCell>
        <mxCell id="Jd2PYMOuBTmMrBa2TlfO-218" value="&lt;div style=&quot;color: rgb(248, 248, 242); background-color: rgb(38, 41, 44); font-family: &amp;quot;Fira Code&amp;quot;, Consolas, &amp;quot;Courier New&amp;quot;, monospace, Menlo, Monaco, &amp;quot;Courier New&amp;quot;, monospace; font-size: 16px; line-height: 24px; white-space-collapse: preserve;&quot;&gt;CAM container&lt;/div&gt;" style="text;html=1;align=center;verticalAlign=middle;resizable=0;points=[];autosize=1;strokeColor=none;fillColor=none;" parent="1" vertex="1">
          <mxGeometry x="67" y="200" width="150" height="40" as="geometry" />
        </mxCell>
        <mxCell id="Jd2PYMOuBTmMrBa2TlfO-225" style="edgeStyle=orthogonalEdgeStyle;rounded=0;orthogonalLoop=1;jettySize=auto;html=1;exitX=0.5;exitY=1;exitDx=0;exitDy=0;" parent="1" source="Jd2PYMOuBTmMrBa2TlfO-220" edge="1">
          <mxGeometry relative="1" as="geometry">
            <mxPoint x="170.04347826086962" y="860" as="targetPoint" />
          </mxGeometry>
        </mxCell>
        <mxCell id="Jd2PYMOuBTmMrBa2TlfO-220" value="&lt;p style=&quot;line-height: 0%;&quot;&gt;&lt;span style=&quot;font-size: 16px;&quot;&gt;&lt;b&gt;==&lt;/b&gt;&lt;/span&gt;&lt;/p&gt;&lt;p style=&quot;line-height: 0%;&quot;&gt;8bit&lt;/p&gt;&lt;p&gt;&lt;/p&gt;" style="rounded=1;whiteSpace=wrap;html=1;" parent="1" vertex="1">
          <mxGeometry x="150" y="800" width="40" height="40" as="geometry" />
        </mxCell>
        <mxCell id="Jd2PYMOuBTmMrBa2TlfO-221" value="" style="endArrow=classic;html=1;rounded=0;" parent="1" edge="1">
          <mxGeometry width="50" height="50" relative="1" as="geometry">
            <mxPoint x="160" y="780" as="sourcePoint" />
            <mxPoint x="160" y="800" as="targetPoint" />
          </mxGeometry>
        </mxCell>
        <mxCell id="Jd2PYMOuBTmMrBa2TlfO-222" value="" style="endArrow=classic;html=1;rounded=0;" parent="1" edge="1">
          <mxGeometry width="50" height="50" relative="1" as="geometry">
            <mxPoint x="180" y="760" as="sourcePoint" />
            <mxPoint x="180" y="800" as="targetPoint" />
          </mxGeometry>
        </mxCell>
        <mxCell id="Jd2PYMOuBTmMrBa2TlfO-223" value="in" style="text;html=1;align=center;verticalAlign=middle;resizable=0;points=[];autosize=1;strokeColor=none;fillColor=none;" parent="1" vertex="1">
          <mxGeometry x="145" y="758" width="30" height="30" as="geometry" />
        </mxCell>
        <mxCell id="Jd2PYMOuBTmMrBa2TlfO-224" value="mem[0]" style="text;html=1;align=center;verticalAlign=middle;resizable=0;points=[];autosize=1;strokeColor=none;fillColor=none;" parent="1" vertex="1">
          <mxGeometry x="142" y="736" width="60" height="30" as="geometry" />
        </mxCell>
        <mxCell id="Jd2PYMOuBTmMrBa2TlfO-226" value="match[1]" style="text;html=1;align=center;verticalAlign=middle;resizable=0;points=[];autosize=1;strokeColor=none;fillColor=none;" parent="1" vertex="1">
          <mxGeometry x="136" y="851" width="70" height="30" as="geometry" />
        </mxCell>
        <mxCell id="Jd2PYMOuBTmMrBa2TlfO-227" value="" style="group" parent="1" vertex="1" connectable="0">
          <mxGeometry x="173" y="765" width="30" height="30" as="geometry" />
        </mxCell>
        <mxCell id="Jd2PYMOuBTmMrBa2TlfO-228" value="8" style="text;html=1;align=center;verticalAlign=middle;resizable=0;points=[];autosize=1;strokeColor=none;fillColor=none;" parent="Jd2PYMOuBTmMrBa2TlfO-227" vertex="1">
          <mxGeometry width="30" height="30" as="geometry" />
        </mxCell>
        <mxCell id="Jd2PYMOuBTmMrBa2TlfO-229" value="" style="endArrow=none;html=1;rounded=0;" parent="Jd2PYMOuBTmMrBa2TlfO-227" edge="1">
          <mxGeometry width="50" height="50" relative="1" as="geometry">
            <mxPoint x="3" y="18" as="sourcePoint" />
            <mxPoint x="11" y="13" as="targetPoint" />
          </mxGeometry>
        </mxCell>
        <mxCell id="Jd2PYMOuBTmMrBa2TlfO-231" value="" style="group" parent="1" vertex="1" connectable="0">
          <mxGeometry x="138" y="770" width="30" height="30" as="geometry" />
        </mxCell>
        <mxCell id="Jd2PYMOuBTmMrBa2TlfO-232" value="8" style="text;html=1;align=center;verticalAlign=middle;resizable=0;points=[];autosize=1;strokeColor=none;fillColor=none;" parent="Jd2PYMOuBTmMrBa2TlfO-231" vertex="1">
          <mxGeometry x="-3" width="30" height="30" as="geometry" />
        </mxCell>
        <mxCell id="Jd2PYMOuBTmMrBa2TlfO-233" value="" style="endArrow=none;html=1;rounded=0;" parent="Jd2PYMOuBTmMrBa2TlfO-231" edge="1">
          <mxGeometry width="50" height="50" relative="1" as="geometry">
            <mxPoint x="18" y="18" as="sourcePoint" />
            <mxPoint x="26" y="13" as="targetPoint" />
          </mxGeometry>
        </mxCell>
        <mxCell id="Jd2PYMOuBTmMrBa2TlfO-234" style="edgeStyle=orthogonalEdgeStyle;rounded=0;orthogonalLoop=1;jettySize=auto;html=1;exitX=0.5;exitY=1;exitDx=0;exitDy=0;" parent="1" source="Jd2PYMOuBTmMrBa2TlfO-235" edge="1">
          <mxGeometry relative="1" as="geometry">
            <mxPoint x="229.04347826086962" y="860" as="targetPoint" />
          </mxGeometry>
        </mxCell>
        <mxCell id="Jd2PYMOuBTmMrBa2TlfO-235" value="&lt;p style=&quot;line-height: 0%;&quot;&gt;&lt;span style=&quot;font-size: 16px;&quot;&gt;&lt;b&gt;==&lt;/b&gt;&lt;/span&gt;&lt;/p&gt;&lt;p style=&quot;line-height: 0%;&quot;&gt;8bit&lt;/p&gt;&lt;p&gt;&lt;/p&gt;" style="rounded=1;whiteSpace=wrap;html=1;" parent="1" vertex="1">
          <mxGeometry x="209" y="800" width="40" height="40" as="geometry" />
        </mxCell>
        <mxCell id="Jd2PYMOuBTmMrBa2TlfO-236" value="" style="endArrow=classic;html=1;rounded=0;" parent="1" edge="1">
          <mxGeometry width="50" height="50" relative="1" as="geometry">
            <mxPoint x="219" y="780" as="sourcePoint" />
            <mxPoint x="219" y="800" as="targetPoint" />
          </mxGeometry>
        </mxCell>
        <mxCell id="Jd2PYMOuBTmMrBa2TlfO-237" value="" style="endArrow=classic;html=1;rounded=0;" parent="1" edge="1">
          <mxGeometry width="50" height="50" relative="1" as="geometry">
            <mxPoint x="239" y="760" as="sourcePoint" />
            <mxPoint x="239" y="800" as="targetPoint" />
          </mxGeometry>
        </mxCell>
        <mxCell id="Jd2PYMOuBTmMrBa2TlfO-238" value="in" style="text;html=1;align=center;verticalAlign=middle;resizable=0;points=[];autosize=1;strokeColor=none;fillColor=none;" parent="1" vertex="1">
          <mxGeometry x="204" y="758" width="30" height="30" as="geometry" />
        </mxCell>
        <mxCell id="Jd2PYMOuBTmMrBa2TlfO-239" value="mem[1]" style="text;html=1;align=center;verticalAlign=middle;resizable=0;points=[];autosize=1;strokeColor=none;fillColor=none;" parent="1" vertex="1">
          <mxGeometry x="201" y="736" width="60" height="30" as="geometry" />
        </mxCell>
        <mxCell id="Jd2PYMOuBTmMrBa2TlfO-240" value="match[2]" style="text;html=1;align=center;verticalAlign=middle;resizable=0;points=[];autosize=1;strokeColor=none;fillColor=none;" parent="1" vertex="1">
          <mxGeometry x="195" y="851" width="70" height="30" as="geometry" />
        </mxCell>
        <mxCell id="Jd2PYMOuBTmMrBa2TlfO-241" value="" style="group" parent="1" vertex="1" connectable="0">
          <mxGeometry x="232" y="765" width="30" height="30" as="geometry" />
        </mxCell>
        <mxCell id="Jd2PYMOuBTmMrBa2TlfO-242" value="8" style="text;html=1;align=center;verticalAlign=middle;resizable=0;points=[];autosize=1;strokeColor=none;fillColor=none;" parent="Jd2PYMOuBTmMrBa2TlfO-241" vertex="1">
          <mxGeometry width="30" height="30" as="geometry" />
        </mxCell>
        <mxCell id="Jd2PYMOuBTmMrBa2TlfO-243" value="" style="endArrow=none;html=1;rounded=0;" parent="Jd2PYMOuBTmMrBa2TlfO-241" edge="1">
          <mxGeometry width="50" height="50" relative="1" as="geometry">
            <mxPoint x="3" y="18" as="sourcePoint" />
            <mxPoint x="11" y="13" as="targetPoint" />
          </mxGeometry>
        </mxCell>
        <mxCell id="Jd2PYMOuBTmMrBa2TlfO-244" value="" style="group" parent="1" vertex="1" connectable="0">
          <mxGeometry x="197" y="770" width="30" height="30" as="geometry" />
        </mxCell>
        <mxCell id="Jd2PYMOuBTmMrBa2TlfO-245" value="8" style="text;html=1;align=center;verticalAlign=middle;resizable=0;points=[];autosize=1;strokeColor=none;fillColor=none;" parent="Jd2PYMOuBTmMrBa2TlfO-244" vertex="1">
          <mxGeometry x="-3" width="30" height="30" as="geometry" />
        </mxCell>
        <mxCell id="Jd2PYMOuBTmMrBa2TlfO-246" value="" style="endArrow=none;html=1;rounded=0;" parent="Jd2PYMOuBTmMrBa2TlfO-244" edge="1">
          <mxGeometry width="50" height="50" relative="1" as="geometry">
            <mxPoint x="18" y="18" as="sourcePoint" />
            <mxPoint x="26" y="13" as="targetPoint" />
          </mxGeometry>
        </mxCell>
        <mxCell id="Jd2PYMOuBTmMrBa2TlfO-247" style="edgeStyle=orthogonalEdgeStyle;rounded=0;orthogonalLoop=1;jettySize=auto;html=1;exitX=0.5;exitY=1;exitDx=0;exitDy=0;" parent="1" source="Jd2PYMOuBTmMrBa2TlfO-248" edge="1">
          <mxGeometry relative="1" as="geometry">
            <mxPoint x="290.0434782608696" y="860" as="targetPoint" />
          </mxGeometry>
        </mxCell>
        <mxCell id="Jd2PYMOuBTmMrBa2TlfO-248" value="&lt;p style=&quot;line-height: 0%;&quot;&gt;&lt;span style=&quot;font-size: 16px;&quot;&gt;&lt;b&gt;==&lt;/b&gt;&lt;/span&gt;&lt;/p&gt;&lt;p style=&quot;line-height: 0%;&quot;&gt;8bit&lt;/p&gt;&lt;p&gt;&lt;/p&gt;" style="rounded=1;whiteSpace=wrap;html=1;" parent="1" vertex="1">
          <mxGeometry x="270" y="800" width="40" height="40" as="geometry" />
        </mxCell>
        <mxCell id="Jd2PYMOuBTmMrBa2TlfO-249" value="" style="endArrow=classic;html=1;rounded=0;" parent="1" edge="1">
          <mxGeometry width="50" height="50" relative="1" as="geometry">
            <mxPoint x="280" y="780" as="sourcePoint" />
            <mxPoint x="280" y="800" as="targetPoint" />
          </mxGeometry>
        </mxCell>
        <mxCell id="Jd2PYMOuBTmMrBa2TlfO-250" value="" style="endArrow=classic;html=1;rounded=0;" parent="1" edge="1">
          <mxGeometry width="50" height="50" relative="1" as="geometry">
            <mxPoint x="300" y="760" as="sourcePoint" />
            <mxPoint x="300" y="800" as="targetPoint" />
          </mxGeometry>
        </mxCell>
        <mxCell id="Jd2PYMOuBTmMrBa2TlfO-251" value="in" style="text;html=1;align=center;verticalAlign=middle;resizable=0;points=[];autosize=1;strokeColor=none;fillColor=none;" parent="1" vertex="1">
          <mxGeometry x="265" y="758" width="30" height="30" as="geometry" />
        </mxCell>
        <mxCell id="Jd2PYMOuBTmMrBa2TlfO-252" value="mem[2]" style="text;html=1;align=center;verticalAlign=middle;resizable=0;points=[];autosize=1;strokeColor=none;fillColor=none;" parent="1" vertex="1">
          <mxGeometry x="262" y="736" width="60" height="30" as="geometry" />
        </mxCell>
        <mxCell id="Jd2PYMOuBTmMrBa2TlfO-253" value="match[3]" style="text;html=1;align=center;verticalAlign=middle;resizable=0;points=[];autosize=1;strokeColor=none;fillColor=none;" parent="1" vertex="1">
          <mxGeometry x="256" y="851" width="70" height="30" as="geometry" />
        </mxCell>
        <mxCell id="Jd2PYMOuBTmMrBa2TlfO-254" value="" style="group" parent="1" vertex="1" connectable="0">
          <mxGeometry x="293" y="765" width="30" height="30" as="geometry" />
        </mxCell>
        <mxCell id="Jd2PYMOuBTmMrBa2TlfO-255" value="8" style="text;html=1;align=center;verticalAlign=middle;resizable=0;points=[];autosize=1;strokeColor=none;fillColor=none;" parent="Jd2PYMOuBTmMrBa2TlfO-254" vertex="1">
          <mxGeometry width="30" height="30" as="geometry" />
        </mxCell>
        <mxCell id="Jd2PYMOuBTmMrBa2TlfO-256" value="" style="endArrow=none;html=1;rounded=0;" parent="Jd2PYMOuBTmMrBa2TlfO-254" edge="1">
          <mxGeometry width="50" height="50" relative="1" as="geometry">
            <mxPoint x="3" y="18" as="sourcePoint" />
            <mxPoint x="11" y="13" as="targetPoint" />
          </mxGeometry>
        </mxCell>
        <mxCell id="Jd2PYMOuBTmMrBa2TlfO-257" value="" style="group" parent="1" vertex="1" connectable="0">
          <mxGeometry x="258" y="770" width="30" height="30" as="geometry" />
        </mxCell>
        <mxCell id="Jd2PYMOuBTmMrBa2TlfO-258" value="8" style="text;html=1;align=center;verticalAlign=middle;resizable=0;points=[];autosize=1;strokeColor=none;fillColor=none;" parent="Jd2PYMOuBTmMrBa2TlfO-257" vertex="1">
          <mxGeometry x="-3" width="30" height="30" as="geometry" />
        </mxCell>
        <mxCell id="Jd2PYMOuBTmMrBa2TlfO-259" value="" style="endArrow=none;html=1;rounded=0;" parent="Jd2PYMOuBTmMrBa2TlfO-257" edge="1">
          <mxGeometry width="50" height="50" relative="1" as="geometry">
            <mxPoint x="18" y="18" as="sourcePoint" />
            <mxPoint x="26" y="13" as="targetPoint" />
          </mxGeometry>
        </mxCell>
        <mxCell id="Jd2PYMOuBTmMrBa2TlfO-273" style="edgeStyle=orthogonalEdgeStyle;rounded=0;orthogonalLoop=1;jettySize=auto;html=1;exitX=0.5;exitY=1;exitDx=0;exitDy=0;" parent="1" source="Jd2PYMOuBTmMrBa2TlfO-274" edge="1">
          <mxGeometry relative="1" as="geometry">
            <mxPoint x="410.0434782608696" y="860" as="targetPoint" />
          </mxGeometry>
        </mxCell>
        <mxCell id="Jd2PYMOuBTmMrBa2TlfO-274" value="&lt;p style=&quot;line-height: 0%;&quot;&gt;&lt;span style=&quot;font-size: 16px;&quot;&gt;&lt;b&gt;==&lt;/b&gt;&lt;/span&gt;&lt;/p&gt;&lt;p style=&quot;line-height: 0%;&quot;&gt;8bit&lt;/p&gt;&lt;p&gt;&lt;/p&gt;" style="rounded=1;whiteSpace=wrap;html=1;" parent="1" vertex="1">
          <mxGeometry x="390" y="800" width="40" height="40" as="geometry" />
        </mxCell>
        <mxCell id="Jd2PYMOuBTmMrBa2TlfO-275" value="" style="endArrow=classic;html=1;rounded=0;" parent="1" edge="1">
          <mxGeometry width="50" height="50" relative="1" as="geometry">
            <mxPoint x="400" y="780" as="sourcePoint" />
            <mxPoint x="400" y="800" as="targetPoint" />
          </mxGeometry>
        </mxCell>
        <mxCell id="Jd2PYMOuBTmMrBa2TlfO-276" value="" style="endArrow=classic;html=1;rounded=0;" parent="1" edge="1">
          <mxGeometry width="50" height="50" relative="1" as="geometry">
            <mxPoint x="420" y="760" as="sourcePoint" />
            <mxPoint x="420" y="800" as="targetPoint" />
          </mxGeometry>
        </mxCell>
        <mxCell id="Jd2PYMOuBTmMrBa2TlfO-277" value="in" style="text;html=1;align=center;verticalAlign=middle;resizable=0;points=[];autosize=1;strokeColor=none;fillColor=none;" parent="1" vertex="1">
          <mxGeometry x="385" y="758" width="30" height="30" as="geometry" />
        </mxCell>
        <mxCell id="Jd2PYMOuBTmMrBa2TlfO-278" value="mem[13]" style="text;html=1;align=center;verticalAlign=middle;resizable=0;points=[];autosize=1;strokeColor=none;fillColor=none;" parent="1" vertex="1">
          <mxGeometry x="377" y="736" width="70" height="30" as="geometry" />
        </mxCell>
        <mxCell id="Jd2PYMOuBTmMrBa2TlfO-279" value="match[13]" style="text;html=1;align=center;verticalAlign=middle;resizable=0;points=[];autosize=1;strokeColor=none;fillColor=none;" parent="1" vertex="1">
          <mxGeometry x="371" y="851" width="80" height="30" as="geometry" />
        </mxCell>
        <mxCell id="Jd2PYMOuBTmMrBa2TlfO-280" value="" style="group" parent="1" vertex="1" connectable="0">
          <mxGeometry x="413" y="765" width="30" height="30" as="geometry" />
        </mxCell>
        <mxCell id="Jd2PYMOuBTmMrBa2TlfO-281" value="8" style="text;html=1;align=center;verticalAlign=middle;resizable=0;points=[];autosize=1;strokeColor=none;fillColor=none;" parent="Jd2PYMOuBTmMrBa2TlfO-280" vertex="1">
          <mxGeometry width="30" height="30" as="geometry" />
        </mxCell>
        <mxCell id="Jd2PYMOuBTmMrBa2TlfO-282" value="" style="endArrow=none;html=1;rounded=0;" parent="Jd2PYMOuBTmMrBa2TlfO-280" edge="1">
          <mxGeometry width="50" height="50" relative="1" as="geometry">
            <mxPoint x="3" y="18" as="sourcePoint" />
            <mxPoint x="11" y="13" as="targetPoint" />
          </mxGeometry>
        </mxCell>
        <mxCell id="Jd2PYMOuBTmMrBa2TlfO-283" value="" style="group" parent="1" vertex="1" connectable="0">
          <mxGeometry x="378" y="770" width="30" height="30" as="geometry" />
        </mxCell>
        <mxCell id="Jd2PYMOuBTmMrBa2TlfO-284" value="8" style="text;html=1;align=center;verticalAlign=middle;resizable=0;points=[];autosize=1;strokeColor=none;fillColor=none;" parent="Jd2PYMOuBTmMrBa2TlfO-283" vertex="1">
          <mxGeometry x="-3" width="30" height="30" as="geometry" />
        </mxCell>
        <mxCell id="Jd2PYMOuBTmMrBa2TlfO-285" value="" style="endArrow=none;html=1;rounded=0;" parent="Jd2PYMOuBTmMrBa2TlfO-283" edge="1">
          <mxGeometry width="50" height="50" relative="1" as="geometry">
            <mxPoint x="18" y="18" as="sourcePoint" />
            <mxPoint x="26" y="13" as="targetPoint" />
          </mxGeometry>
        </mxCell>
        <mxCell id="Jd2PYMOuBTmMrBa2TlfO-286" style="edgeStyle=orthogonalEdgeStyle;rounded=0;orthogonalLoop=1;jettySize=auto;html=1;exitX=0.5;exitY=1;exitDx=0;exitDy=0;" parent="1" source="Jd2PYMOuBTmMrBa2TlfO-287" edge="1">
          <mxGeometry relative="1" as="geometry">
            <mxPoint x="469.0434782608696" y="860" as="targetPoint" />
          </mxGeometry>
        </mxCell>
        <mxCell id="Jd2PYMOuBTmMrBa2TlfO-287" value="&lt;p style=&quot;line-height: 0%;&quot;&gt;&lt;span style=&quot;font-size: 16px;&quot;&gt;&lt;b&gt;==&lt;/b&gt;&lt;/span&gt;&lt;/p&gt;&lt;p style=&quot;line-height: 0%;&quot;&gt;8bit&lt;/p&gt;&lt;p&gt;&lt;/p&gt;" style="rounded=1;whiteSpace=wrap;html=1;" parent="1" vertex="1">
          <mxGeometry x="449" y="800" width="40" height="40" as="geometry" />
        </mxCell>
        <mxCell id="Jd2PYMOuBTmMrBa2TlfO-288" value="" style="endArrow=classic;html=1;rounded=0;" parent="1" edge="1">
          <mxGeometry width="50" height="50" relative="1" as="geometry">
            <mxPoint x="459" y="780" as="sourcePoint" />
            <mxPoint x="459" y="800" as="targetPoint" />
          </mxGeometry>
        </mxCell>
        <mxCell id="Jd2PYMOuBTmMrBa2TlfO-289" value="" style="endArrow=classic;html=1;rounded=0;" parent="1" edge="1">
          <mxGeometry width="50" height="50" relative="1" as="geometry">
            <mxPoint x="479" y="760" as="sourcePoint" />
            <mxPoint x="479" y="800" as="targetPoint" />
          </mxGeometry>
        </mxCell>
        <mxCell id="Jd2PYMOuBTmMrBa2TlfO-290" value="in" style="text;html=1;align=center;verticalAlign=middle;resizable=0;points=[];autosize=1;strokeColor=none;fillColor=none;" parent="1" vertex="1">
          <mxGeometry x="444" y="758" width="30" height="30" as="geometry" />
        </mxCell>
        <mxCell id="Jd2PYMOuBTmMrBa2TlfO-291" value="mem[14]" style="text;html=1;align=center;verticalAlign=middle;resizable=0;points=[];autosize=1;strokeColor=none;fillColor=none;" parent="1" vertex="1">
          <mxGeometry x="436" y="736" width="70" height="30" as="geometry" />
        </mxCell>
        <mxCell id="Jd2PYMOuBTmMrBa2TlfO-292" value="match[14]" style="text;html=1;align=center;verticalAlign=middle;resizable=0;points=[];autosize=1;strokeColor=none;fillColor=none;" parent="1" vertex="1">
          <mxGeometry x="430" y="851" width="80" height="30" as="geometry" />
        </mxCell>
        <mxCell id="Jd2PYMOuBTmMrBa2TlfO-293" value="" style="group" parent="1" vertex="1" connectable="0">
          <mxGeometry x="472" y="765" width="30" height="30" as="geometry" />
        </mxCell>
        <mxCell id="Jd2PYMOuBTmMrBa2TlfO-294" value="8" style="text;html=1;align=center;verticalAlign=middle;resizable=0;points=[];autosize=1;strokeColor=none;fillColor=none;" parent="Jd2PYMOuBTmMrBa2TlfO-293" vertex="1">
          <mxGeometry width="30" height="30" as="geometry" />
        </mxCell>
        <mxCell id="Jd2PYMOuBTmMrBa2TlfO-295" value="" style="endArrow=none;html=1;rounded=0;" parent="Jd2PYMOuBTmMrBa2TlfO-293" edge="1">
          <mxGeometry width="50" height="50" relative="1" as="geometry">
            <mxPoint x="3" y="18" as="sourcePoint" />
            <mxPoint x="11" y="13" as="targetPoint" />
          </mxGeometry>
        </mxCell>
        <mxCell id="Jd2PYMOuBTmMrBa2TlfO-296" value="" style="group" parent="1" vertex="1" connectable="0">
          <mxGeometry x="437" y="770" width="30" height="30" as="geometry" />
        </mxCell>
        <mxCell id="Jd2PYMOuBTmMrBa2TlfO-297" value="8" style="text;html=1;align=center;verticalAlign=middle;resizable=0;points=[];autosize=1;strokeColor=none;fillColor=none;" parent="Jd2PYMOuBTmMrBa2TlfO-296" vertex="1">
          <mxGeometry x="-3" width="30" height="30" as="geometry" />
        </mxCell>
        <mxCell id="Jd2PYMOuBTmMrBa2TlfO-298" value="" style="endArrow=none;html=1;rounded=0;" parent="Jd2PYMOuBTmMrBa2TlfO-296" edge="1">
          <mxGeometry width="50" height="50" relative="1" as="geometry">
            <mxPoint x="18" y="18" as="sourcePoint" />
            <mxPoint x="26" y="13" as="targetPoint" />
          </mxGeometry>
        </mxCell>
        <mxCell id="Jd2PYMOuBTmMrBa2TlfO-299" style="edgeStyle=orthogonalEdgeStyle;rounded=0;orthogonalLoop=1;jettySize=auto;html=1;exitX=0.5;exitY=1;exitDx=0;exitDy=0;" parent="1" source="Jd2PYMOuBTmMrBa2TlfO-300" edge="1">
          <mxGeometry relative="1" as="geometry">
            <mxPoint x="530.0434782608696" y="860" as="targetPoint" />
          </mxGeometry>
        </mxCell>
        <mxCell id="Jd2PYMOuBTmMrBa2TlfO-300" value="&lt;p style=&quot;line-height: 0%;&quot;&gt;&lt;span style=&quot;font-size: 16px;&quot;&gt;&lt;b&gt;==&lt;/b&gt;&lt;/span&gt;&lt;/p&gt;&lt;p style=&quot;line-height: 0%;&quot;&gt;8bit&lt;/p&gt;&lt;p&gt;&lt;/p&gt;" style="rounded=1;whiteSpace=wrap;html=1;" parent="1" vertex="1">
          <mxGeometry x="510" y="800" width="40" height="40" as="geometry" />
        </mxCell>
        <mxCell id="Jd2PYMOuBTmMrBa2TlfO-301" value="" style="endArrow=classic;html=1;rounded=0;" parent="1" edge="1">
          <mxGeometry width="50" height="50" relative="1" as="geometry">
            <mxPoint x="520" y="780" as="sourcePoint" />
            <mxPoint x="520" y="800" as="targetPoint" />
          </mxGeometry>
        </mxCell>
        <mxCell id="Jd2PYMOuBTmMrBa2TlfO-302" value="" style="endArrow=classic;html=1;rounded=0;" parent="1" edge="1">
          <mxGeometry width="50" height="50" relative="1" as="geometry">
            <mxPoint x="540" y="760" as="sourcePoint" />
            <mxPoint x="540" y="800" as="targetPoint" />
          </mxGeometry>
        </mxCell>
        <mxCell id="Jd2PYMOuBTmMrBa2TlfO-303" value="in" style="text;html=1;align=center;verticalAlign=middle;resizable=0;points=[];autosize=1;strokeColor=none;fillColor=none;" parent="1" vertex="1">
          <mxGeometry x="505" y="758" width="30" height="30" as="geometry" />
        </mxCell>
        <mxCell id="Jd2PYMOuBTmMrBa2TlfO-304" value="mem[15]" style="text;html=1;align=center;verticalAlign=middle;resizable=0;points=[];autosize=1;strokeColor=none;fillColor=none;" parent="1" vertex="1">
          <mxGeometry x="497" y="736" width="70" height="30" as="geometry" />
        </mxCell>
        <mxCell id="Jd2PYMOuBTmMrBa2TlfO-305" value="match[15]" style="text;html=1;align=center;verticalAlign=middle;resizable=0;points=[];autosize=1;strokeColor=none;fillColor=none;" parent="1" vertex="1">
          <mxGeometry x="491" y="851" width="80" height="30" as="geometry" />
        </mxCell>
        <mxCell id="Jd2PYMOuBTmMrBa2TlfO-306" value="" style="group" parent="1" vertex="1" connectable="0">
          <mxGeometry x="533" y="765" width="30" height="30" as="geometry" />
        </mxCell>
        <mxCell id="Jd2PYMOuBTmMrBa2TlfO-307" value="8" style="text;html=1;align=center;verticalAlign=middle;resizable=0;points=[];autosize=1;strokeColor=none;fillColor=none;" parent="Jd2PYMOuBTmMrBa2TlfO-306" vertex="1">
          <mxGeometry width="30" height="30" as="geometry" />
        </mxCell>
        <mxCell id="Jd2PYMOuBTmMrBa2TlfO-308" value="" style="endArrow=none;html=1;rounded=0;" parent="Jd2PYMOuBTmMrBa2TlfO-306" edge="1">
          <mxGeometry width="50" height="50" relative="1" as="geometry">
            <mxPoint x="3" y="18" as="sourcePoint" />
            <mxPoint x="11" y="13" as="targetPoint" />
          </mxGeometry>
        </mxCell>
        <mxCell id="Jd2PYMOuBTmMrBa2TlfO-309" value="" style="group" parent="1" vertex="1" connectable="0">
          <mxGeometry x="498" y="770" width="30" height="30" as="geometry" />
        </mxCell>
        <mxCell id="Jd2PYMOuBTmMrBa2TlfO-310" value="8" style="text;html=1;align=center;verticalAlign=middle;resizable=0;points=[];autosize=1;strokeColor=none;fillColor=none;" parent="Jd2PYMOuBTmMrBa2TlfO-309" vertex="1">
          <mxGeometry x="-3" width="30" height="30" as="geometry" />
        </mxCell>
        <mxCell id="Jd2PYMOuBTmMrBa2TlfO-311" value="" style="endArrow=none;html=1;rounded=0;" parent="Jd2PYMOuBTmMrBa2TlfO-309" edge="1">
          <mxGeometry width="50" height="50" relative="1" as="geometry">
            <mxPoint x="18" y="18" as="sourcePoint" />
            <mxPoint x="26" y="13" as="targetPoint" />
          </mxGeometry>
        </mxCell>
        <mxCell id="Jd2PYMOuBTmMrBa2TlfO-312" value="" style="shape=ellipse;fillColor=#000000;strokeColor=none;html=1;sketch=0;fontFamily=Helvetica;fontSize=11;fontColor=default;labelBackgroundColor=default;" parent="1" vertex="1">
          <mxGeometry x="346" y="816" width="8" height="8" as="geometry" />
        </mxCell>
        <mxCell id="Jd2PYMOuBTmMrBa2TlfO-313" value="" style="shape=ellipse;fillColor=#000000;strokeColor=none;html=1;sketch=0;fontFamily=Helvetica;fontSize=11;fontColor=default;labelBackgroundColor=default;" parent="1" vertex="1">
          <mxGeometry x="326" y="816" width="8" height="8" as="geometry" />
        </mxCell>
        <mxCell id="Jd2PYMOuBTmMrBa2TlfO-314" value="" style="shape=ellipse;fillColor=#000000;strokeColor=none;html=1;sketch=0;fontFamily=Helvetica;fontSize=11;fontColor=default;labelBackgroundColor=default;" parent="1" vertex="1">
          <mxGeometry x="366" y="816" width="8" height="8" as="geometry" />
        </mxCell>
        <mxCell id="Jd2PYMOuBTmMrBa2TlfO-316" value="&lt;div style=&quot;color: rgb(248, 248, 242); background-color: rgb(38, 41, 44); font-family: &amp;quot;Fira Code&amp;quot;, Consolas, &amp;quot;Courier New&amp;quot;, monospace, Menlo, Monaco, &amp;quot;Courier New&amp;quot;, monospace; font-size: 16px; line-height: 24px; white-space-collapse: preserve;&quot;&gt;Compare Array&lt;/div&gt;" style="text;html=1;align=center;verticalAlign=middle;resizable=0;points=[];autosize=1;strokeColor=none;fillColor=none;" parent="1" vertex="1">
          <mxGeometry x="88" y="680" width="150" height="40" as="geometry" />
        </mxCell>
        <mxCell id="Jd2PYMOuBTmMrBa2TlfO-318" style="edgeStyle=orthogonalEdgeStyle;rounded=0;orthogonalLoop=1;jettySize=auto;html=1;entryX=0.75;entryY=1;entryDx=0;entryDy=0;endArrow=none;endFill=0;" parent="1" edge="1">
          <mxGeometry relative="1" as="geometry">
            <mxPoint x="860" y="790" as="targetPoint" />
            <mxPoint x="840" y="790" as="sourcePoint" />
            <Array as="points">
              <mxPoint x="842" y="790" />
              <mxPoint x="842" y="790" />
            </Array>
          </mxGeometry>
        </mxCell>
        <mxCell id="Jd2PYMOuBTmMrBa2TlfO-320" style="edgeStyle=orthogonalEdgeStyle;rounded=0;orthogonalLoop=1;jettySize=auto;html=1;exitX=0.5;exitY=0;exitDx=0;exitDy=0;endArrow=none;endFill=0;" parent="1" source="Jd2PYMOuBTmMrBa2TlfO-321" edge="1">
          <mxGeometry relative="1" as="geometry">
            <mxPoint x="930" y="780" as="targetPoint" />
          </mxGeometry>
        </mxCell>
        <mxCell id="Jd2PYMOuBTmMrBa2TlfO-321" value="" style="shape=trapezoid;perimeter=trapezoidPerimeter;whiteSpace=wrap;html=1;fixedSize=1;rotation=90;" parent="1" vertex="1">
          <mxGeometry x="840" y="760" width="80" height="40" as="geometry" />
        </mxCell>
        <mxCell id="Jd2PYMOuBTmMrBa2TlfO-322" value="" style="endArrow=classic;html=1;rounded=0;" parent="1" edge="1">
          <mxGeometry width="50" height="50" relative="1" as="geometry">
            <mxPoint x="880" y="840" as="sourcePoint" />
            <mxPoint x="879.8699999999999" y="810" as="targetPoint" />
          </mxGeometry>
        </mxCell>
        <mxCell id="Jd2PYMOuBTmMrBa2TlfO-323" value="match[1]" style="text;html=1;align=center;verticalAlign=middle;resizable=0;points=[];autosize=1;strokeColor=none;fillColor=none;" parent="1" vertex="1">
          <mxGeometry x="845" y="831" width="70" height="30" as="geometry" />
        </mxCell>
        <mxCell id="Jd2PYMOuBTmMrBa2TlfO-324" style="edgeStyle=orthogonalEdgeStyle;rounded=0;orthogonalLoop=1;jettySize=auto;html=1;exitX=0.5;exitY=0;exitDx=0;exitDy=0;endArrow=none;endFill=0;" parent="1" edge="1">
          <mxGeometry relative="1" as="geometry">
            <mxPoint x="860" y="770.004358974359" as="targetPoint" />
            <mxPoint x="840" y="770.03" as="sourcePoint" />
          </mxGeometry>
        </mxCell>
        <mxCell id="Jd2PYMOuBTmMrBa2TlfO-325" value="4&#39;d0" style="text;html=1;align=center;verticalAlign=middle;resizable=0;points=[];autosize=1;strokeColor=none;fillColor=none;" parent="1" vertex="1">
          <mxGeometry x="802" y="754" width="50" height="30" as="geometry" />
        </mxCell>
        <mxCell id="Jd2PYMOuBTmMrBa2TlfO-332" value="&lt;b&gt;MUX&lt;/b&gt;&lt;div style=&quot;font-size: 8px;&quot;&gt;&lt;font style=&quot;font-size: 8px;&quot;&gt;4bit&lt;/font&gt;&lt;/div&gt;&lt;div style=&quot;font-size: 8px;&quot;&gt;&lt;font style=&quot;font-size: 8px;&quot;&gt;1bit-sel&lt;/font&gt;&lt;/div&gt;" style="text;html=1;align=center;verticalAlign=middle;resizable=0;points=[];autosize=1;strokeColor=none;fillColor=none;" parent="1" vertex="1">
          <mxGeometry x="854" y="756" width="50" height="50" as="geometry" />
        </mxCell>
        <mxCell id="Jd2PYMOuBTmMrBa2TlfO-333" value="4&#39;d1" style="text;html=1;align=center;verticalAlign=middle;resizable=0;points=[];autosize=1;strokeColor=none;fillColor=none;" parent="1" vertex="1">
          <mxGeometry x="802" y="775" width="50" height="30" as="geometry" />
        </mxCell>
        <mxCell id="Jd2PYMOuBTmMrBa2TlfO-352" value="" style="group" parent="1" vertex="1" connectable="0">
          <mxGeometry x="970" y="765" width="30" height="30" as="geometry" />
        </mxCell>
        <mxCell id="Jd2PYMOuBTmMrBa2TlfO-353" value="4" style="text;html=1;align=center;verticalAlign=middle;resizable=0;points=[];autosize=1;strokeColor=none;fillColor=none;" parent="Jd2PYMOuBTmMrBa2TlfO-352" vertex="1">
          <mxGeometry width="30" height="30" as="geometry" />
        </mxCell>
        <mxCell id="Jd2PYMOuBTmMrBa2TlfO-354" value="" style="endArrow=none;html=1;rounded=0;" parent="Jd2PYMOuBTmMrBa2TlfO-352" edge="1">
          <mxGeometry width="50" height="50" relative="1" as="geometry">
            <mxPoint x="12" y="30" as="sourcePoint" />
            <mxPoint x="18" y="20" as="targetPoint" />
          </mxGeometry>
        </mxCell>
        <mxCell id="Jd2PYMOuBTmMrBa2TlfO-355" value="" style="group" parent="1" vertex="1" connectable="0">
          <mxGeometry x="905" y="775" width="30" height="30" as="geometry" />
        </mxCell>
        <mxCell id="Jd2PYMOuBTmMrBa2TlfO-356" value="4" style="text;html=1;align=center;verticalAlign=middle;resizable=0;points=[];autosize=1;strokeColor=none;fillColor=none;" parent="Jd2PYMOuBTmMrBa2TlfO-355" vertex="1">
          <mxGeometry width="30" height="30" as="geometry" />
        </mxCell>
        <mxCell id="Jd2PYMOuBTmMrBa2TlfO-357" value="" style="endArrow=none;html=1;rounded=0;" parent="Jd2PYMOuBTmMrBa2TlfO-355" edge="1">
          <mxGeometry width="50" height="50" relative="1" as="geometry">
            <mxPoint x="12" y="30" as="sourcePoint" />
            <mxPoint x="18" y="20" as="targetPoint" />
          </mxGeometry>
        </mxCell>
        <mxCell id="Jd2PYMOuBTmMrBa2TlfO-361" style="edgeStyle=orthogonalEdgeStyle;rounded=0;orthogonalLoop=1;jettySize=auto;html=1;entryX=0.75;entryY=1;entryDx=0;entryDy=0;endArrow=none;endFill=0;" parent="1" edge="1">
          <mxGeometry relative="1" as="geometry">
            <mxPoint x="930" y="800" as="targetPoint" />
            <mxPoint x="915" y="820" as="sourcePoint" />
            <Array as="points">
              <mxPoint x="915" y="800" />
            </Array>
          </mxGeometry>
        </mxCell>
        <mxCell id="Jd2PYMOuBTmMrBa2TlfO-362" style="edgeStyle=orthogonalEdgeStyle;rounded=0;orthogonalLoop=1;jettySize=auto;html=1;exitX=0.5;exitY=0;exitDx=0;exitDy=0;endArrow=none;endFill=0;" parent="1" source="Jd2PYMOuBTmMrBa2TlfO-363" edge="1">
          <mxGeometry relative="1" as="geometry">
            <mxPoint x="1000" y="790" as="targetPoint" />
          </mxGeometry>
        </mxCell>
        <mxCell id="Jd2PYMOuBTmMrBa2TlfO-363" value="" style="shape=trapezoid;perimeter=trapezoidPerimeter;whiteSpace=wrap;html=1;fixedSize=1;rotation=90;" parent="1" vertex="1">
          <mxGeometry x="910" y="770" width="80" height="40" as="geometry" />
        </mxCell>
        <mxCell id="Jd2PYMOuBTmMrBa2TlfO-364" value="" style="endArrow=classic;html=1;rounded=0;" parent="1" edge="1">
          <mxGeometry width="50" height="50" relative="1" as="geometry">
            <mxPoint x="950" y="850" as="sourcePoint" />
            <mxPoint x="950" y="820" as="targetPoint" />
          </mxGeometry>
        </mxCell>
        <mxCell id="Jd2PYMOuBTmMrBa2TlfO-365" value="match[2]" style="text;html=1;align=center;verticalAlign=middle;resizable=0;points=[];autosize=1;strokeColor=none;fillColor=none;" parent="1" vertex="1">
          <mxGeometry x="915" y="840" width="70" height="30" as="geometry" />
        </mxCell>
        <mxCell id="Jd2PYMOuBTmMrBa2TlfO-368" value="&lt;b&gt;MUX&lt;/b&gt;&lt;div style=&quot;font-size: 8px;&quot;&gt;&lt;font style=&quot;font-size: 8px;&quot;&gt;4bit&lt;/font&gt;&lt;/div&gt;&lt;div style=&quot;font-size: 8px;&quot;&gt;&lt;font style=&quot;font-size: 8px;&quot;&gt;1bit-sel&lt;/font&gt;&lt;/div&gt;" style="text;html=1;align=center;verticalAlign=middle;resizable=0;points=[];autosize=1;strokeColor=none;fillColor=none;" parent="1" vertex="1">
          <mxGeometry x="925" y="766" width="50" height="50" as="geometry" />
        </mxCell>
        <mxCell id="Jd2PYMOuBTmMrBa2TlfO-370" value="4&#39;d2" style="text;html=1;align=center;verticalAlign=middle;resizable=0;points=[];autosize=1;strokeColor=none;fillColor=none;" parent="1" vertex="1">
          <mxGeometry x="888" y="811" width="50" height="30" as="geometry" />
        </mxCell>
        <mxCell id="Jd2PYMOuBTmMrBa2TlfO-374" value="" style="group" parent="1" vertex="1" connectable="0">
          <mxGeometry x="975" y="785" width="30" height="30" as="geometry" />
        </mxCell>
        <mxCell id="Jd2PYMOuBTmMrBa2TlfO-375" value="4" style="text;html=1;align=center;verticalAlign=middle;resizable=0;points=[];autosize=1;strokeColor=none;fillColor=none;" parent="Jd2PYMOuBTmMrBa2TlfO-374" vertex="1">
          <mxGeometry width="30" height="30" as="geometry" />
        </mxCell>
        <mxCell id="Jd2PYMOuBTmMrBa2TlfO-376" value="" style="endArrow=none;html=1;rounded=0;" parent="Jd2PYMOuBTmMrBa2TlfO-374" edge="1">
          <mxGeometry width="50" height="50" relative="1" as="geometry">
            <mxPoint x="12" y="30" as="sourcePoint" />
            <mxPoint x="18" y="20" as="targetPoint" />
          </mxGeometry>
        </mxCell>
        <mxCell id="Jd2PYMOuBTmMrBa2TlfO-377" style="edgeStyle=orthogonalEdgeStyle;rounded=0;orthogonalLoop=1;jettySize=auto;html=1;entryX=0.75;entryY=1;entryDx=0;entryDy=0;endArrow=none;endFill=0;" parent="1" edge="1">
          <mxGeometry relative="1" as="geometry">
            <mxPoint x="1000" y="810" as="targetPoint" />
            <mxPoint x="985" y="830" as="sourcePoint" />
            <Array as="points">
              <mxPoint x="985" y="810" />
            </Array>
          </mxGeometry>
        </mxCell>
        <mxCell id="Jd2PYMOuBTmMrBa2TlfO-378" style="edgeStyle=orthogonalEdgeStyle;rounded=0;orthogonalLoop=1;jettySize=auto;html=1;exitX=0.5;exitY=0;exitDx=0;exitDy=0;endArrow=none;endFill=0;" parent="1" source="Jd2PYMOuBTmMrBa2TlfO-379" edge="1">
          <mxGeometry relative="1" as="geometry">
            <mxPoint x="1050" y="800" as="targetPoint" />
          </mxGeometry>
        </mxCell>
        <mxCell id="Jd2PYMOuBTmMrBa2TlfO-379" value="" style="shape=trapezoid;perimeter=trapezoidPerimeter;whiteSpace=wrap;html=1;fixedSize=1;rotation=90;" parent="1" vertex="1">
          <mxGeometry x="980" y="780" width="80" height="40" as="geometry" />
        </mxCell>
        <mxCell id="Jd2PYMOuBTmMrBa2TlfO-380" value="" style="endArrow=classic;html=1;rounded=0;" parent="1" edge="1">
          <mxGeometry width="50" height="50" relative="1" as="geometry">
            <mxPoint x="1019.8699999999999" y="860" as="sourcePoint" />
            <mxPoint x="1019.8699999999999" y="830" as="targetPoint" />
          </mxGeometry>
        </mxCell>
        <mxCell id="Jd2PYMOuBTmMrBa2TlfO-381" value="match[3]" style="text;html=1;align=center;verticalAlign=middle;resizable=0;points=[];autosize=1;strokeColor=none;fillColor=none;" parent="1" vertex="1">
          <mxGeometry x="985" y="851" width="70" height="30" as="geometry" />
        </mxCell>
        <mxCell id="Jd2PYMOuBTmMrBa2TlfO-382" value="&lt;b&gt;MUX&lt;/b&gt;&lt;div style=&quot;font-size: 8px;&quot;&gt;&lt;font style=&quot;font-size: 8px;&quot;&gt;4bit&lt;/font&gt;&lt;/div&gt;&lt;div style=&quot;font-size: 8px;&quot;&gt;&lt;font style=&quot;font-size: 8px;&quot;&gt;1bit-sel&lt;/font&gt;&lt;/div&gt;" style="text;html=1;align=center;verticalAlign=middle;resizable=0;points=[];autosize=1;strokeColor=none;fillColor=none;" parent="1" vertex="1">
          <mxGeometry x="994" y="776" width="50" height="50" as="geometry" />
        </mxCell>
        <mxCell id="Jd2PYMOuBTmMrBa2TlfO-383" value="4&#39;d3" style="text;html=1;align=center;verticalAlign=middle;resizable=0;points=[];autosize=1;strokeColor=none;fillColor=none;" parent="1" vertex="1">
          <mxGeometry x="958" y="821" width="50" height="30" as="geometry" />
        </mxCell>
        <mxCell id="Jd2PYMOuBTmMrBa2TlfO-384" value="" style="shape=ellipse;fillColor=#000000;strokeColor=none;html=1;sketch=0;fontFamily=Helvetica;fontSize=11;fontColor=default;labelBackgroundColor=default;" parent="1" vertex="1">
          <mxGeometry x="1069" y="796" width="8" height="8" as="geometry" />
        </mxCell>
        <mxCell id="Jd2PYMOuBTmMrBa2TlfO-385" value="" style="shape=ellipse;fillColor=#000000;strokeColor=none;html=1;sketch=0;fontFamily=Helvetica;fontSize=11;fontColor=default;labelBackgroundColor=default;" parent="1" vertex="1">
          <mxGeometry x="1055" y="796" width="8" height="8" as="geometry" />
        </mxCell>
        <mxCell id="Jd2PYMOuBTmMrBa2TlfO-386" value="" style="shape=ellipse;fillColor=#000000;strokeColor=none;html=1;sketch=0;fontFamily=Helvetica;fontSize=11;fontColor=default;labelBackgroundColor=default;" parent="1" vertex="1">
          <mxGeometry x="1083" y="796" width="8" height="8" as="geometry" />
        </mxCell>
        <mxCell id="Jd2PYMOuBTmMrBa2TlfO-390" style="edgeStyle=orthogonalEdgeStyle;rounded=0;orthogonalLoop=1;jettySize=auto;html=1;endArrow=none;endFill=0;" parent="1" edge="1">
          <mxGeometry relative="1" as="geometry">
            <mxPoint x="1110" y="800" as="targetPoint" />
            <mxPoint x="1100" y="800" as="sourcePoint" />
          </mxGeometry>
        </mxCell>
        <mxCell id="Jd2PYMOuBTmMrBa2TlfO-391" value="" style="group" parent="1" vertex="1" connectable="0">
          <mxGeometry x="1150" y="785" width="30" height="30" as="geometry" />
        </mxCell>
        <mxCell id="Jd2PYMOuBTmMrBa2TlfO-392" value="4" style="text;html=1;align=center;verticalAlign=middle;resizable=0;points=[];autosize=1;strokeColor=none;fillColor=none;" parent="Jd2PYMOuBTmMrBa2TlfO-391" vertex="1">
          <mxGeometry width="30" height="30" as="geometry" />
        </mxCell>
        <mxCell id="Jd2PYMOuBTmMrBa2TlfO-393" value="" style="endArrow=none;html=1;rounded=0;" parent="Jd2PYMOuBTmMrBa2TlfO-391" edge="1">
          <mxGeometry width="50" height="50" relative="1" as="geometry">
            <mxPoint x="12" y="30" as="sourcePoint" />
            <mxPoint x="18" y="20" as="targetPoint" />
          </mxGeometry>
        </mxCell>
        <mxCell id="Jd2PYMOuBTmMrBa2TlfO-397" style="edgeStyle=orthogonalEdgeStyle;rounded=0;orthogonalLoop=1;jettySize=auto;html=1;entryX=0.75;entryY=1;entryDx=0;entryDy=0;endArrow=none;endFill=0;" parent="1" edge="1">
          <mxGeometry relative="1" as="geometry">
            <mxPoint x="1110" y="820" as="targetPoint" />
            <mxPoint x="1095" y="840" as="sourcePoint" />
            <Array as="points">
              <mxPoint x="1095" y="820" />
            </Array>
          </mxGeometry>
        </mxCell>
        <mxCell id="Jd2PYMOuBTmMrBa2TlfO-398" style="edgeStyle=orthogonalEdgeStyle;rounded=0;orthogonalLoop=1;jettySize=auto;html=1;exitX=0.5;exitY=0;exitDx=0;exitDy=0;endArrow=none;endFill=0;" parent="1" source="Jd2PYMOuBTmMrBa2TlfO-399" edge="1">
          <mxGeometry relative="1" as="geometry">
            <mxPoint x="1180" y="810" as="targetPoint" />
          </mxGeometry>
        </mxCell>
        <mxCell id="Jd2PYMOuBTmMrBa2TlfO-399" value="" style="shape=trapezoid;perimeter=trapezoidPerimeter;whiteSpace=wrap;html=1;fixedSize=1;rotation=90;" parent="1" vertex="1">
          <mxGeometry x="1090" y="790" width="80" height="40" as="geometry" />
        </mxCell>
        <mxCell id="Jd2PYMOuBTmMrBa2TlfO-400" value="" style="endArrow=classic;html=1;rounded=0;" parent="1" edge="1">
          <mxGeometry width="50" height="50" relative="1" as="geometry">
            <mxPoint x="1130" y="870" as="sourcePoint" />
            <mxPoint x="1130" y="840" as="targetPoint" />
          </mxGeometry>
        </mxCell>
        <mxCell id="Jd2PYMOuBTmMrBa2TlfO-401" value="match[14]" style="text;html=1;align=center;verticalAlign=middle;resizable=0;points=[];autosize=1;strokeColor=none;fillColor=none;" parent="1" vertex="1">
          <mxGeometry x="1090" y="860" width="80" height="30" as="geometry" />
        </mxCell>
        <mxCell id="Jd2PYMOuBTmMrBa2TlfO-402" value="&lt;b&gt;MUX&lt;/b&gt;&lt;div style=&quot;font-size: 8px;&quot;&gt;&lt;font style=&quot;font-size: 8px;&quot;&gt;4bit&lt;/font&gt;&lt;/div&gt;&lt;div style=&quot;font-size: 8px;&quot;&gt;&lt;font style=&quot;font-size: 8px;&quot;&gt;1bit-sel&lt;/font&gt;&lt;/div&gt;" style="text;html=1;align=center;verticalAlign=middle;resizable=0;points=[];autosize=1;strokeColor=none;fillColor=none;" parent="1" vertex="1">
          <mxGeometry x="1104" y="786" width="50" height="50" as="geometry" />
        </mxCell>
        <mxCell id="Jd2PYMOuBTmMrBa2TlfO-403" value="4&#39;d14" style="text;html=1;align=center;verticalAlign=middle;resizable=0;points=[];autosize=1;strokeColor=none;fillColor=none;" parent="1" vertex="1">
          <mxGeometry x="1068" y="831" width="50" height="30" as="geometry" />
        </mxCell>
        <mxCell id="Jd2PYMOuBTmMrBa2TlfO-404" value="" style="group" parent="1" vertex="1" connectable="0">
          <mxGeometry x="1155" y="805" width="30" height="30" as="geometry" />
        </mxCell>
        <mxCell id="Jd2PYMOuBTmMrBa2TlfO-405" value="4" style="text;html=1;align=center;verticalAlign=middle;resizable=0;points=[];autosize=1;strokeColor=none;fillColor=none;" parent="Jd2PYMOuBTmMrBa2TlfO-404" vertex="1">
          <mxGeometry width="30" height="30" as="geometry" />
        </mxCell>
        <mxCell id="Jd2PYMOuBTmMrBa2TlfO-406" value="" style="endArrow=none;html=1;rounded=0;" parent="Jd2PYMOuBTmMrBa2TlfO-404" edge="1">
          <mxGeometry width="50" height="50" relative="1" as="geometry">
            <mxPoint x="12" y="30" as="sourcePoint" />
            <mxPoint x="18" y="20" as="targetPoint" />
          </mxGeometry>
        </mxCell>
        <mxCell id="Jd2PYMOuBTmMrBa2TlfO-407" style="edgeStyle=orthogonalEdgeStyle;rounded=0;orthogonalLoop=1;jettySize=auto;html=1;entryX=0.75;entryY=1;entryDx=0;entryDy=0;endArrow=none;endFill=0;" parent="1" edge="1">
          <mxGeometry relative="1" as="geometry">
            <mxPoint x="1180" y="830" as="targetPoint" />
            <mxPoint x="1165" y="850" as="sourcePoint" />
            <Array as="points">
              <mxPoint x="1165" y="830" />
            </Array>
          </mxGeometry>
        </mxCell>
        <mxCell id="Jd2PYMOuBTmMrBa2TlfO-408" style="edgeStyle=orthogonalEdgeStyle;rounded=0;orthogonalLoop=1;jettySize=auto;html=1;exitX=0.5;exitY=0;exitDx=0;exitDy=0;endArrow=none;endFill=0;" parent="1" source="Jd2PYMOuBTmMrBa2TlfO-409" edge="1">
          <mxGeometry relative="1" as="geometry">
            <mxPoint x="1240" y="820" as="targetPoint" />
          </mxGeometry>
        </mxCell>
        <mxCell id="Jd2PYMOuBTmMrBa2TlfO-409" value="" style="shape=trapezoid;perimeter=trapezoidPerimeter;whiteSpace=wrap;html=1;fixedSize=1;rotation=90;" parent="1" vertex="1">
          <mxGeometry x="1160" y="800" width="80" height="40" as="geometry" />
        </mxCell>
        <mxCell id="Jd2PYMOuBTmMrBa2TlfO-410" value="" style="endArrow=classic;html=1;rounded=0;" parent="1" edge="1">
          <mxGeometry width="50" height="50" relative="1" as="geometry">
            <mxPoint x="1199.87" y="880" as="sourcePoint" />
            <mxPoint x="1199.87" y="850" as="targetPoint" />
          </mxGeometry>
        </mxCell>
        <mxCell id="Jd2PYMOuBTmMrBa2TlfO-411" value="match[15]" style="text;html=1;align=center;verticalAlign=middle;resizable=0;points=[];autosize=1;strokeColor=none;fillColor=none;" parent="1" vertex="1">
          <mxGeometry x="1160" y="871" width="80" height="30" as="geometry" />
        </mxCell>
        <mxCell id="Jd2PYMOuBTmMrBa2TlfO-412" value="&lt;b&gt;MUX&lt;/b&gt;&lt;div style=&quot;font-size: 8px;&quot;&gt;&lt;font style=&quot;font-size: 8px;&quot;&gt;4bit&lt;/font&gt;&lt;/div&gt;&lt;div style=&quot;font-size: 8px;&quot;&gt;&lt;font style=&quot;font-size: 8px;&quot;&gt;1bit-sel&lt;/font&gt;&lt;/div&gt;" style="text;html=1;align=center;verticalAlign=middle;resizable=0;points=[];autosize=1;strokeColor=none;fillColor=none;" parent="1" vertex="1">
          <mxGeometry x="1174" y="796" width="50" height="50" as="geometry" />
        </mxCell>
        <mxCell id="Jd2PYMOuBTmMrBa2TlfO-413" value="4&#39;d15" style="text;html=1;align=center;verticalAlign=middle;resizable=0;points=[];autosize=1;strokeColor=none;fillColor=none;" parent="1" vertex="1">
          <mxGeometry x="1138" y="841" width="50" height="30" as="geometry" />
        </mxCell>
        <mxCell id="Jd2PYMOuBTmMrBa2TlfO-417" value="0" style="text;html=1;align=center;verticalAlign=middle;resizable=0;points=[];autosize=1;strokeColor=none;fillColor=none;fontColor=#999999;fontSize=8;" parent="1" vertex="1">
          <mxGeometry x="720" y="351" width="30" height="20" as="geometry" />
        </mxCell>
        <mxCell id="Jd2PYMOuBTmMrBa2TlfO-418" value="1" style="text;html=1;align=center;verticalAlign=middle;resizable=0;points=[];autosize=1;strokeColor=none;fillColor=none;fontColor=#999999;fontSize=8;" parent="1" vertex="1">
          <mxGeometry x="720" y="390" width="30" height="20" as="geometry" />
        </mxCell>
        <mxCell id="Jd2PYMOuBTmMrBa2TlfO-419" value="0" style="text;html=1;align=center;verticalAlign=middle;resizable=0;points=[];autosize=1;strokeColor=none;fillColor=none;fontColor=#999999;fontSize=8;" parent="1" vertex="1">
          <mxGeometry x="848" y="760" width="30" height="20" as="geometry" />
        </mxCell>
        <mxCell id="Jd2PYMOuBTmMrBa2TlfO-420" value="1" style="text;html=1;align=center;verticalAlign=middle;resizable=0;points=[];autosize=1;strokeColor=none;fillColor=none;fontColor=#999999;fontSize=8;" parent="1" vertex="1">
          <mxGeometry x="848" y="780" width="30" height="20" as="geometry" />
        </mxCell>
        <mxCell id="Jd2PYMOuBTmMrBa2TlfO-421" value="0" style="text;html=1;align=center;verticalAlign=middle;resizable=0;points=[];autosize=1;strokeColor=none;fillColor=none;fontColor=#999999;fontSize=8;" parent="1" vertex="1">
          <mxGeometry x="918" y="770" width="30" height="20" as="geometry" />
        </mxCell>
        <mxCell id="Jd2PYMOuBTmMrBa2TlfO-422" value="1" style="text;html=1;align=center;verticalAlign=middle;resizable=0;points=[];autosize=1;strokeColor=none;fillColor=none;fontColor=#999999;fontSize=8;" parent="1" vertex="1">
          <mxGeometry x="918" y="790" width="30" height="20" as="geometry" />
        </mxCell>
        <mxCell id="Jd2PYMOuBTmMrBa2TlfO-423" value="0" style="text;html=1;align=center;verticalAlign=middle;resizable=0;points=[];autosize=1;strokeColor=none;fillColor=none;fontColor=#999999;fontSize=8;" parent="1" vertex="1">
          <mxGeometry x="988" y="780" width="30" height="20" as="geometry" />
        </mxCell>
        <mxCell id="Jd2PYMOuBTmMrBa2TlfO-424" value="1" style="text;html=1;align=center;verticalAlign=middle;resizable=0;points=[];autosize=1;strokeColor=none;fillColor=none;fontColor=#999999;fontSize=8;" parent="1" vertex="1">
          <mxGeometry x="988" y="800" width="30" height="20" as="geometry" />
        </mxCell>
        <mxCell id="Jd2PYMOuBTmMrBa2TlfO-427" value="0" style="text;html=1;align=center;verticalAlign=middle;resizable=0;points=[];autosize=1;strokeColor=none;fillColor=none;fontColor=#999999;fontSize=8;" parent="1" vertex="1">
          <mxGeometry x="1098" y="790" width="30" height="20" as="geometry" />
        </mxCell>
        <mxCell id="Jd2PYMOuBTmMrBa2TlfO-428" value="1" style="text;html=1;align=center;verticalAlign=middle;resizable=0;points=[];autosize=1;strokeColor=none;fillColor=none;fontColor=#999999;fontSize=8;" parent="1" vertex="1">
          <mxGeometry x="1098" y="810" width="30" height="20" as="geometry" />
        </mxCell>
        <mxCell id="Jd2PYMOuBTmMrBa2TlfO-429" value="0" style="text;html=1;align=center;verticalAlign=middle;resizable=0;points=[];autosize=1;strokeColor=none;fillColor=none;fontColor=#999999;fontSize=8;" parent="1" vertex="1">
          <mxGeometry x="1168" y="800" width="30" height="20" as="geometry" />
        </mxCell>
        <mxCell id="Jd2PYMOuBTmMrBa2TlfO-430" value="1" style="text;html=1;align=center;verticalAlign=middle;resizable=0;points=[];autosize=1;strokeColor=none;fillColor=none;fontColor=#999999;fontSize=8;" parent="1" vertex="1">
          <mxGeometry x="1168" y="820" width="30" height="20" as="geometry" />
        </mxCell>
        <mxCell id="Jd2PYMOuBTmMrBa2TlfO-431" value="t_out" style="text;html=1;align=center;verticalAlign=middle;resizable=0;points=[];autosize=1;strokeColor=none;fillColor=none;" parent="1" vertex="1">
          <mxGeometry x="1230" y="804" width="50" height="30" as="geometry" />
        </mxCell>
        <mxCell id="Jd2PYMOuBTmMrBa2TlfO-432" value="" style="group" parent="1" vertex="1" connectable="0">
          <mxGeometry x="1215" y="795" width="30" height="30" as="geometry" />
        </mxCell>
        <mxCell id="Jd2PYMOuBTmMrBa2TlfO-433" value="4" style="text;html=1;align=center;verticalAlign=middle;resizable=0;points=[];autosize=1;strokeColor=none;fillColor=none;" parent="Jd2PYMOuBTmMrBa2TlfO-432" vertex="1">
          <mxGeometry width="30" height="30" as="geometry" />
        </mxCell>
        <mxCell id="Jd2PYMOuBTmMrBa2TlfO-434" value="" style="endArrow=none;html=1;rounded=0;" parent="Jd2PYMOuBTmMrBa2TlfO-432" edge="1">
          <mxGeometry width="50" height="50" relative="1" as="geometry">
            <mxPoint x="12" y="30" as="sourcePoint" />
            <mxPoint x="18" y="20" as="targetPoint" />
          </mxGeometry>
        </mxCell>
        <mxCell id="Jd2PYMOuBTmMrBa2TlfO-435" value="t_out" style="text;html=1;align=center;verticalAlign=middle;resizable=0;points=[];autosize=1;strokeColor=none;fillColor=none;fontColor=#999999;" parent="1" vertex="1">
          <mxGeometry x="671" y="391" width="50" height="30" as="geometry" />
        </mxCell>
        <mxCell id="Jd2PYMOuBTmMrBa2TlfO-437" value="&lt;div style=&quot;color: rgb(248, 248, 242); background-color: rgb(38, 41, 44); font-family: &amp;quot;Fira Code&amp;quot;, Consolas, &amp;quot;Courier New&amp;quot;, monospace, Menlo, Monaco, &amp;quot;Courier New&amp;quot;, monospace; font-size: 16px; line-height: 24px; white-space-collapse: preserve;&quot;&gt;Priority Encoder&lt;/div&gt;" style="text;html=1;align=center;verticalAlign=middle;resizable=0;points=[];autosize=1;strokeColor=none;fillColor=none;" parent="1" vertex="1">
          <mxGeometry x="772" y="680" width="180" height="40" as="geometry" />
        </mxCell>
        <mxCell id="35p0UZ2eRB_uHXYvNK0P-1" value="" style="group" vertex="1" connectable="0" parent="1">
          <mxGeometry x="761" y="356" width="30" height="30" as="geometry" />
        </mxCell>
        <mxCell id="35p0UZ2eRB_uHXYvNK0P-2" value="4" style="text;html=1;align=center;verticalAlign=middle;resizable=0;points=[];autosize=1;strokeColor=none;fillColor=none;" vertex="1" parent="35p0UZ2eRB_uHXYvNK0P-1">
          <mxGeometry width="30" height="30" as="geometry" />
        </mxCell>
        <mxCell id="35p0UZ2eRB_uHXYvNK0P-3" value="" style="endArrow=none;html=1;rounded=0;" edge="1" parent="35p0UZ2eRB_uHXYvNK0P-1">
          <mxGeometry width="50" height="50" relative="1" as="geometry">
            <mxPoint x="12" y="30" as="sourcePoint" />
            <mxPoint x="18" y="20" as="targetPoint" />
          </mxGeometry>
        </mxCell>
        <mxCell id="35p0UZ2eRB_uHXYvNK0P-4" value="" style="group" vertex="1" connectable="0" parent="1">
          <mxGeometry x="431" y="86" width="30" height="30" as="geometry" />
        </mxCell>
        <mxCell id="35p0UZ2eRB_uHXYvNK0P-5" value="4" style="text;html=1;align=center;verticalAlign=middle;resizable=0;points=[];autosize=1;strokeColor=none;fillColor=none;" vertex="1" parent="35p0UZ2eRB_uHXYvNK0P-4">
          <mxGeometry width="30" height="30" as="geometry" />
        </mxCell>
        <mxCell id="35p0UZ2eRB_uHXYvNK0P-6" value="" style="endArrow=none;html=1;rounded=0;" edge="1" parent="35p0UZ2eRB_uHXYvNK0P-4">
          <mxGeometry width="50" height="50" relative="1" as="geometry">
            <mxPoint x="12" y="30" as="sourcePoint" />
            <mxPoint x="18" y="20" as="targetPoint" />
          </mxGeometry>
        </mxCell>
      </root>
    </mxGraphModel>
  </diagram>
</mxfile>
